<?xml version="1.0" encoding="UTF-8" standalone="no"?>
<svg
   xmlns:dc="http://purl.org/dc/elements/1.1/"
   xmlns:cc="http://creativecommons.org/ns#"
   xmlns:rdf="http://www.w3.org/1999/02/22-rdf-syntax-ns#"
   xmlns:svg="http://www.w3.org/2000/svg"
   xmlns="http://www.w3.org/2000/svg"
   width="40.73476mm"
   height="9.784915mm"
   viewBox="0 0 40.73476 9.7849149"
   version="1.1"
   id="svg836">
  <defs
     id="defs830" />
  <metadata
     id="metadata833">
    <rdf:RDF>
      <cc:Work
         rdf:about="">
        <dc:format>image/svg+xml</dc:format>
        <dc:type
           rdf:resource="http://purl.org/dc/dcmitype/StillImage" />
        <dc:title></dc:title>
      </cc:Work>
    </rdf:RDF>
  </metadata>
  <g
     id="layer1"
     transform="translate(282.98454,-6.2076706)">
    <path
       style="opacity:1;vector-effect:none;fill:#a8b8d5;fill-opacity:1;fill-rule:nonzero;stroke:#000000;stroke-width:0;stroke-linecap:butt;stroke-linejoin:round;stroke-miterlimit:4;stroke-dasharray:none;stroke-dashoffset:0;stroke-opacity:1"
       d="m -274.51681,6.0707781 28.6617,0.231195 3.52133,0.949231 0.084,7.8476499 -3.60533,0.774731 -28.6617,-0.231195 -1.82545,-0.02655 -3.1366,-1.072481 -3.33443,-3.297905 0.78199,-1.237934 2.99696,-2.5465254 z"
       id="rect814" />
    <path
       style="fill:#000000;stroke-width:0.127"
       d="m -276.41637,15.873924 c -1.20866,-0.92744 -2.88511,-0.423859 -3.82711,-1.582389 -0.6119,-1.149051 -2.08431,-1.650061 -2.66552,-2.881101 -0.4959,-1.07009 1.58605,-2.0962601 2.27895,-2.8754301 0.68688,-0.80236 1.6236,-1.60091 2.87138,-1.67108 1.21084,-0.54745 2.49116,-0.63985 3.81434,-0.59115 9.61399,-0.0719 19.22989,-0.11132 28.84329,0.0292 0.89407,0.22237 2.00755,0.62475 2.78486,0.94923 0.0222,2.61588 0.0443,5.2317601 0.0664,7.8476501 -1.17325,0.22356 -2.19784,0.95978 -3.42767,0.81363 -10.11132,0.0975 -20.22489,0.11981 -30.3359,-0.0115 l -0.28705,-0.0132 -0.11598,-0.0142 z m 0.889,-0.63124 c -0.98829,-0.32192 -2.36711,-1.256239 -3.22093,-0.96353 0.89504,0.43989 2.21978,1.264801 3.22093,0.96353 z m 15.74798,-0.06 c -0.37615,-0.252991 -2.15773,-0.13218 -0.73207,-0.415331 0.30258,-0.391759 0.99369,0.240751 0.64222,-0.6624 -0.47758,0.5105 -0.51005,-0.71843 -1.41844,-0.32664 -1.06217,-0.1809 -2.37185,1.33401 -0.53399,1.09106 -0.48438,0.35648 -2.75141,0.14222 -3.84353,0.215911 -0.65028,-0.0623 -2.28627,0.1082 -2.3179,-0.18464 0.80844,-0.213481 2.57021,0.230809 2.82775,-0.352461 -1.0681,-0.0692 -2.22169,-0.0175 -2.95548,-0.303539 -0.92922,0.136739 -1.63899,1.369419 -0.22573,1.06514 2.79091,0.0397 5.58961,0.117629 8.37679,-0.0359 0.16022,0.159939 0.10994,-0.095 0.18038,-0.0912 z m 6.731,0.0764 c -0.50175,-0.420141 -0.8993,-1.31626 -1.58579,-1.39715 -1.44584,0.0153 -2.94558,0.007 -4.34735,0.118949 -0.31479,-1.37275 1.67483,-0.005 2.47545,-0.39617 0.79398,0.0464 1.64796,-0.0644 2.40617,0.0736 0.61775,0.51148 1.18888,1.178591 1.87881,1.53957 2.02122,-0.0689 4.05287,-0.003 6.06468,-0.21441 0.82114,-0.144859 -1.21786,-0.69738 -0.0711,-1.283999 0.75738,-1.106771 2.19347,0.208489 1.0241,0.881169 1.14205,-0.27186 2.69686,-0.81006 2.31132,-2.286769 -0.16887,-1.288281 0.47994,-3.1815711 -0.843,-3.9971811 -0.80188,-0.58775 -1.01631,-0.044 -1.01484,0.67091 -0.75839,0.14447 -2.27137,-0.29331 -1.82145,-1.35618 -0.12599,-0.91862 -2.36394,-0.23884 -3.28495,-0.39946 -1.36276,0.005 -2.93851,-0.16497 -3.83434,1.11195 -0.34547,0.45368 -0.77389,0.7101 -1.35558,0.60205 -0.74833,0.12478 -2.41535,-0.25483 -2.39017,0.37565 0.50355,0.64575 1.68058,1.7611101 1.8851,1.8467001 -0.95575,0.33981 -1.63556,2.60133 -2.63315,1.67377 -0.54404,0.555341 -1.38236,-0.25304 -0.25166,-0.35796 1.77271,0.453511 3.121,-2.28656 0.91076,-2.6790601 -0.65635,-0.24727 -1.95492,0.5864501 -1.38784,-0.52257 0.68277,0.64986 1.81325,-0.35244 0.39207,-0.3298 -0.8027,0.18128 -0.56954,-1.07087 0.13051,-0.40019 1.47983,-0.24964 3.34168,0.50845 4.53815,-0.60665 0.67412,-0.43078 1.55209,-1.30486 0.0911,-1.09007 -1.79262,-0.008 -3.60987,-0.1329 -5.38765,0.0692 -0.29175,0.55671 -0.77818,1.04331 -1.16124,0.36627 1.12,-0.69672 -2.21735,-0.32776 -2.84945,-0.45029 -1.98261,0.007 -3.96849,-0.0259 -5.94874,0.0545 -0.19625,0.22441 0.73382,1.47552 1.1947,1.47695 1.27171,-0.82669 2.88194,-0.36671 4.3078,-0.48118 1.27207,0.21618 2.93767,0.97674 3.95356,0.44021 -0.24482,0.70792 -2.76899,0.48804 -1.14206,1.17444 0.76171,0.1799 1.36782,-0.77703 1.17428,0.44678 -0.0462,0.9985601 0.25709,2.6827701 -0.11411,3.2968701 -0.31464,-1.25806 -1.07984,0.53321 0.0214,0.34732 0.1779,0.320351 0.38145,2.302721 0.71457,1.051621 -0.0569,-0.508811 0.14557,0.60765 0.79759,0.22225 0.95245,0.0332 1.59988,0.0313 1.9523,-0.517451 0.58709,-0.13129 1.41678,-0.21562 0.4714,0.257541 -0.52114,0.86746 -2.97039,0.105389 -2.91889,0.694879 1.87479,0.0956 3.77712,0.131261 5.64752,-0.0267 z m -1.651,-0.28141 c 0.42602,-0.543941 0.088,0.497129 0,0 z m -0.15081,-0.721761 c 0.78112,-0.12746 -0.23605,0.24563 0,0 z m 1.42081,-0.548239 c 0.34197,-0.511881 0.29929,0.49447 0,0 z m 0.68217,-1.401961 c -0.14872,-0.501229 -1.25516,-1.26135 -0.46353,-1.66879 0.85213,-1.0787801 2.36547,-1.1026401 3.59007,-0.7824701 0.77178,0.4153701 0.16284,1.5022101 1.45492,0.9787401 0.76746,0.10771 1.64865,0.14065 1.58007,-0.49947 1.14801,1.42779 -1.30095,1.4818 -1.76177,1.56413 -0.65413,-0.69729 -1.38201,1.0539 -2.32878,0.39578 -0.68898,0.006 -1.38408,0.0871 -2.07098,0.0121 z m 2.47857,-0.43211 c 1.75914,0.0356 0.51029,-2.7247401 -0.66623,-1.76463 -1.12742,-0.5979601 -3.12958,0.96364 -1.3885,1.74331 0.66987,0.251481 1.37068,0.0135 2.05473,0.0213 z m -1.75545,-0.50544 c -0.0843,-0.620569 0.657,0.55657 0,0 z m 1.48463,-0.390989 c 0.1123,-1.1900901 0.27467,1.157089 0,0 z m 4.06362,0.34925 c -0.59087,-0.21722 -2.55487,-0.338071 -2.60458,0.14009 0.84939,0.101279 1.78259,0.101529 2.60458,-0.14009 z m 2.38479,0.382789 c -0.0637,-0.6446 -0.68204,0.65782 -0.56628,-0.38246 -0.19632,-0.80606 0.35845,-1.6376301 0.35709,-0.36012 0.19211,0.56417 0.32797,-1.7243401 0.39129,-0.21392 -0.0275,0.14156 0.0927,2.05664 -0.1821,0.9565 z m -14.92633,-0.10454 c 0.30153,-0.45327 0.0941,0.57581 0,0 z m 15.48596,-0.0878 c -0.27988,-0.592761 0.18857,-2.1400411 0.3874,-0.78266 0.0383,0.244809 0.004,1.672119 -0.3874,0.78266 z m -15.48596,-0.957461 c 0.11372,-0.34504 0.63857,0.459721 0.056,0.13057 z m 5.66922,-1.7659101 c -0.32263,-0.68379 0.84695,0.003 0,0 z m 0.5138,-0.7219 c 0.36732,-1.28168 0.81107,0.49274 0,0 z m -6.1813,-0.45998 c -0.22434,-0.7431 0.6692,-0.32567 1.09033,-0.39868 0.71383,0.0935 2.40191,-0.21578 2.07279,0.76314 -0.8341,-0.4691 -2.92868,0.1825 -3.16312,-0.36446 z m 2.2077,-0.10583 c -0.17578,-0.40364 -0.34395,0.33636 0,0 z m 1.95777,0.40008 c 0.78111,-0.12746 -0.23603,0.24563 0,0 z m -8.44416,-0.63161 c 0.69825,-0.38532 0.78027,0.26073 0,0 z m 2.14972,-0.004 c 1.02485,-0.0903 0.12827,0.19338 0,0 z m 17.72106,7.6873501 c 0.92726,-0.134879 0.97613,-1.50903 -0.0326,-0.657189 -0.72123,0.28463 -2.25439,1.463469 -0.52503,0.874599 l 0.27297,-0.0991 z m -26.30117,0.0472 c 0.82608,-0.2653 0.89082,-2.19584 0.0398,-1.10653 0.0399,0.618481 -2.2063,0.55955 -1.19359,0.14134 -0.77895,-0.96878 0.35313,-0.575539 0.72253,-0.93802 -1.01418,-0.38811 -1.99328,-1.08323 -3.08984,-0.60879 -0.76033,-1.04727 1.10147,-0.60112 1.73447,-0.69006 0.60159,0.0769 0.43734,-1.773149 -0.42322,-1.28471 -0.60837,0.24518 -2.39,-0.19912 -1.08697,-0.6146601 1.56782,0.3542601 2.541,-1.0462 4.1115,-0.64165 1.52652,-0.24796 -0.46423,-1.7849 -1.11308,-1.96743 -1.51649,-0.0632 -3.08638,-0.26299 -4.49023,0.0971 -1.42056,0.0429 -2.46221,0.95931 -3.63393,1.43737 -0.84415,-0.51639 -1.99097,0.87277 -2.80297,1.5176301 -1.40787,0.73108 -0.27381,1.61719 0.75772,2.353181 0.70952,0.557799 1.6501,1.1981 2.47443,0.971179 -0.59226,0.82486 1.79437,0.90923 2.39291,1.249271 1.842,0.233759 3.75094,0.209369 5.60046,0.0848 z m -6.58279,-1.20112 c -1.25436,-1.02802 1.48377,-1.37246 0.89808,-0.0697 -0.43274,0.16354 -0.76673,1.01695 -0.89808,0.0697 z m 0.78017,-0.41341 c -0.64131,-0.76784 -0.63525,0.74589 0,0 z m -1.80182,-0.0233 c 0.78112,-0.12746 -0.23605,0.24563 0,0 z m -0.30813,-1.01093 c -0.57239,-0.22924 -1.11698,-0.94974 -2.05559,-0.94765 0.56803,-0.11298 2.36614,-0.31316 0.77026,-0.4699 -0.86299,0.0354 -1.07122,-0.40158 -0.0207,-0.28351 1.2044,-0.008 1.86083,-1.2048201 3.13074,-0.7568601 0.8536,-0.15691 1.37116,0.7091801 0.23539,0.3113101 -1.33041,-0.5611101 -2.46514,1.05349 -1.28136,1.89835 0.50151,-0.10575 1.87056,0.43356 1.81617,-0.40145 0.0801,-0.93477 0.59538,-1.20758 0.39197,-0.0803 -0.21642,1.32694 -2.06535,0.82 -2.98684,0.73 z m -0.0491,-0.87829 c -0.30153,-0.45327 -0.0941,0.57581 0,0 z m -2.794,0.22194 c -0.96729,-0.835911 0.87642,-1.8727311 1.39696,-2.5639411 1.49389,-0.61699 -0.80955,0.784281 -1.03562,1.3335001 -0.66271,0.25075 -0.0275,1.5701 -0.36134,1.230441 z m 3.81,-0.785941 c 0.43612,-0.54479 0.0784,0.49942 0,0 z m 0.40942,-1.3663601 c -0.31509,-0.68579 -0.90608,-0.74023 0.0537,-1.06411 1.33463,-0.79595 1.23218,1.12241 -0.0537,1.06411 z m 0.73358,-0.72914 c -0.74197,-0.74954 -0.73629,0.73761 0,0 z m 4.08236,-0.0282 c 1.04592,-0.007 -0.18697,-1.33651 1.04033,-0.91232 1.69466,0.52634 -0.4267,1.34641 -1.04033,0.91232 z m 1.37865,-0.42988 c -0.76723,-0.51395 -0.51832,0.69232 0,0 z m -3.6195,0.25719 c -0.80405,-0.0602 -0.82339,-0.091 -0.005,-0.0903 0.50775,-0.0776 1.85133,0.0694 0.60873,0.12885 l -0.29004,-0.0135 -0.31341,-0.025 z m 1.30969,-0.71135 c 0.78112,-0.12746 -0.23605,0.24563 0,0 z m 8.93093,6.7244111 c -0.37921,-0.322691 -1.8563,0.002 -0.57547,0.17687 0.20527,0.0263 0.41885,-0.0432 0.57547,-0.17687 z m 18.22155,-0.458141 c 1.14778,-1.51695 -2.29904,0.14642 -0.55949,0.286101 0.20841,-0.0416 0.39921,-0.149061 0.55949,-0.286101 z m -33.80656,-0.16061 c 0.33519,-0.380499 -1.16258,-0.996159 -1.53001,-1.13818 -0.0972,0.54956 1.02962,1.27811 1.53001,1.13818 z m 15.53383,-0.0667 c 0.54999,0.0293 1.08761,0.0322 1.35998,-0.52934 0.38381,-0.296809 0.59073,-1.0037 1.11298,-0.979579 0.97046,0.287269 1.76989,-0.399831 0.80853,-1.146791 0.28205,-0.38207 0.91367,-1.7402801 -0.0691,-1.5184901 -1.63934,0.113261 -2.08434,-2.24803 -3.91149,-1.57919 -1.27029,0.14155 -3.59437,-0.56999 -3.7662,1.2646 -0.326,1.1679501 -0.24447,2.7406101 0.15332,3.6019301 0.43556,1.84607 2.96011,0.58446 4.31192,0.88684 z m -2.80402,-0.48712 c -1.22356,-0.927189 -0.76294,-2.86934 -0.48258,-4.1425501 0.27843,-0.6625 1.96686,-0.97388 0.68484,-0.24439 -1.05393,0.91379 -0.76113,2.7359201 -0.20208,3.8467201 0.73289,0.23879 1.1653,1.20296 -1.8e-4,0.54022 z m 3.09206,0.13882 c -1.67259,0.26397 -2.49112,-1.53067 -2.05725,-2.97116 0.0231,-0.43422 0.49137,-2.1002201 0.40325,-0.8377401 0.15343,1.1006101 -0.30874,2.3733101 0.37743,3.3265901 1.99506,0.99875 0.74155,-1.95595 1.22515,-2.89667 0.73419,-0.7089601 -0.42479,-1.6404901 -1.2649,-1.4158901 1.26006,-0.38592 2.18759,0.84804 1.82499,2.1231411 -0.0664,0.756639 0.18226,2.558409 -0.50867,2.671729 z m -0.127,-3.7698601 c 0.30153,-0.45326 0.0941,0.5758001 0,0 z m -0.35717,-0.31794 c 0.52763,-0.73687 0.27525,0.414531 0,0 z m -6.37381,4.3969301 c -0.28138,-0.44723 -0.32106,0.23578 0,0 z m 9.30516,-0.5353 c -0.71619,-0.123999 -0.25491,0.2027 0,0 z m -20.13182,-0.735009 c -0.0767,-0.646951 -2.13151,-2.032891 -1.24535,-0.695161 0.21607,0.0904 1.64533,1.64866 1.24535,0.695161 z m 10.69967,-0.007 c 0.78014,-0.18321 1.26035,-0.61883 0.77668,-1.50032 0.66946,-0.58443 0.76845,-1.7067201 -0.46496,-1.3010301 -0.86547,0.6659301 -0.29412,2.2767701 -0.87511,2.9347501 0.15445,0.075 0.53848,0.11625 0.56339,-0.1334 z m -0.4918,-1.17475 c 0.39063,-0.58254 -0.77289,0.7364 0,0 z m 10.90577,-0.15875 c -0.34196,-0.51183 -0.29933,0.49448 0,0 z m -8.94825,-0.26245 c 0.15981,-0.52887 -0.5539,0.46735 0,0 z m -12.78262,-0.65833 c 0.54337,-1.2328801 2.30413,-1.2927001 2.85732,-2.3406901 -1.46433,0.24415 -2.62837,1.56326 -3.67853,2.5619001 -0.63618,0.97792 0.7227,0.033 0.82121,-0.22121 z m 11.0629,-0.5884401 c 1.23,-0.37352 -0.35359,-0.59903 -0.32505,0.0795 0.0998,0.0495 0.2862,0.0578 0.32505,-0.0795 z m 25.48354,-1.22778 c 0.0418,-1.28563 -2.27288,-0.64292 -0.70298,0.0501 0.22229,0.0345 0.60281,0.30144 0.70298,-0.0501 z m -32.15719,-0.94603 c 0.71678,-1.10852 -2.51441,0.76669 -0.69821,0.24228 0.22359,-0.10372 0.45217,-0.20475 0.69821,-0.24228 z m 34.48662,0.25001 c -0.26259,-0.93735 -3.5828,-0.89638 -1.39697,-0.24999 0.39794,-0.026 1.24501,0.88405 1.39697,0.24999 z"
       id="path885" />
  </g>
</svg>
