<?xml version="1.0" encoding="UTF-8"?>
<svg width="30.633mm" height="9.7819mm" version="1.1" viewBox="0 0 30.633 9.7819" xmlns="http://www.w3.org/2000/svg" xmlns:cc="http://creativecommons.org/ns#" xmlns:dc="http://purl.org/dc/elements/1.1/" xmlns:rdf="http://www.w3.org/1999/02/22-rdf-syntax-ns#">
<metadata>
<rdf:RDF>
<cc:Work rdf:about="">
<dc:format>image/svg+xml</dc:format>
<dc:type rdf:resource="http://purl.org/dc/dcmitype/StillImage"/>
<dc:title/>
</cc:Work>
</rdf:RDF>
</metadata>
<path d="m5.8204 0.38805 22.545-0.3072 1.77 1.0809 0.05164 7.1455-1.8216 1.3453-22.612-0.27929-2.7545-1.5667c-0.40342-0.15516-2.7186-2.992-2.7186-2.992l1.471-2.0201z" fill="#a8b8d5" stroke-width="0"/>
<g transform="translate(272.97 -6.0606)">
<path d="m-267.03 15.733c-1.0399-0.49677-2.1105-0.90225-3.0298-1.61-1.0409-0.8655-2.0859-1.7987-2.7639-2.9844-0.66167-0.97864 1.1638-1.8185 1.6893-2.5682 1.0375-1.0193 2.2988-1.7765 3.6862-2.2128 1.3572-0.42863 2.8234-0.20048 4.227-0.28439 6.6024-0.0222 13.205-8e-3 19.807-0.0122 0.34834 0.72259 0.77793 1.4256 1.0771 2.16-0.0296 1.9465 0.0763 3.9033-0.11622 5.841-0.49618 0.46313-0.61077 1.5919-1.2869 1.7803-7.6794-0.0198-15.36 0.046-23.038-0.0891l-0.25168-0.0206zm23.514-0.68669c-1.9754-0.22114-3.9861-0.10291-5.9757-0.15159-5.6272-0.0436-11.257 0.0654-16.882-0.0856-1.1199-0.25624-2.2132-0.65362-3.1129-1.4207-1.063-0.51515-1.663-1.7439-2.6534-2.2267 0.0623 0.93212 1.1687 1.3646 1.6572 1.9656 0.85502 0.80521 1.9465 1.2489 2.9868 1.7487 1.0352 0.36316 2.1596 0.25553 3.2537 0.29792 6.779 0.0538 13.561 0.0913 20.338-0.0829l0.13949-8e-3 0.24875-0.0363zm-10.128-0.61907c1.3576 0.024 2.7403 0.28186 4.0845 5.03e-4 -0.43106-0.23197-0.99606-1.3531-0.18114-0.54649 0.5886 0.45036 2.0109-0.16787 2.1855 0.18107-0.46697 0.20483-1.0701 0.36022-0.17737 0.38723 1.3743 0.0397 2.7593 0.13049 4.1297 0.0128 0.98368-0.72679-0.33375-1.2082-1.0668-0.97286-1.2963 0.32436-2.154-1.2809-1.6964-2.2986 0.20127 0.7943 0.57342 2.2415 1.7558 1.9809 0.54472 2e-3 1.0894 7.94e-4 1.6342 1e-3v-4.1964c-0.73181-0.38788-1.5251-0.0617-2.2993-0.11644-0.47611-0.0329-0.69102 0.63199-0.32688 0.5921-0.6196 0.156-0.43307 2.0203-0.89971 0.8647-0.0671-1.0907 0.7466-2.2214 1.9358-1.9876 0.45693-0.0163 0.91394-0.0308 1.3709-0.0463 0.25112-0.79259-0.21375-0.85368-0.94731-0.8739-0.5373 0.54176-1.0112 0.39651-1.514 0.0888-0.82294-0.0106-1.7936-0.14532-2.3864 0.0201 0.81032 0.0429 1.268 1.3709 0.15708 1.5342-0.7738 0.0797-2.7818 0.29354-2.2974-0.99107 0.0362-0.59968 1.9378-0.48375 0.69953-0.64365-2.0453-0.06811-4.0883 0.12508-6.1316-0.04931-0.44553 4e-3 -1.9214-0.13684-1.8113 0.22196 0.76517-0.0136 1.8155-0.0102 1.7442 1.0109h2.9944c0.37651 0.64505 0.37591 1.4303 0.6356 2.0907 0.89619-0.5637 2.0639-0.4584 3.126-0.41993 0.51303 0.34816 1.3829 0.20584 1.7593 0.61525-0.24512 0.54097-1.302 0.067-1.2076 0.89737-1.0524 0.16334-2.5988 0.55905-3.3588-0.40079-0.6238-0.66838-0.43761 1.0247-0.86429 1.3213-0.51897 1.0294-2.0714 0.26037-3.0166 0.39426 0.12725 1.2929-1.823 1.3016-2.5383 0.65278-1.2868-0.11012-1.7011-1.4438-2.606-2.1665-1.0986-1.1094 1.0234-1.5975 1.2088-2.6579 0.26297-0.8378 2.0738-0.383 1.7164-1.4223-1.2393-0.16621-2.5117-0.11175-3.76-0.0548-0.16783 0.30359-1.2913 0.45379-0.46153 0.1028-0.81222-0.35322-2.0463 0.14025-2.9645 0.0391-0.54458-0.17498-1.8288 0.16062-2.3959 0.81036-0.39661 0.0148-0.88546 0.55748-0.90988-0.0556-0.9886 0.41267-1.8516 1.0666-2.5878 1.8708-0.66312 0.89785 1.0936-0.21682 0.51892 0.57952-0.25668 0.46577-1.5858 0.0151-0.70392 0.81823 0.97707 0.84277 1.8674 1.8846 3.1457 2.255 0.1617-0.2837-0.52531-1.0606 0.15878-0.48085 0.85712-0.0387-0.1852 0.73342 0.65787 0.53096 0.14833 0.38873 0.71319 0.0183 0.87143 0.5212 2.5457 0.1276 5.1106 0.0127 7.6636 0.0189 1.6521-0.0128 3.3046-0.0321 4.9565-0.0336zm-7.9375-0.24664c-0.21218-0.0244-1.2284-0.0663-0.82253-0.0773 0.5084-0.0759 1.3274 0.139 1.6053-0.29016 0.10863-0.6786-0.9738-0.42704-0.97582-0.62191 0.8806 0.17473 0.71473-1.258 1.4962-0.27295 1.0326 0.68235 0.15797 1.6448-0.82908 1.2907l-0.22549-0.012-0.24863-0.0164zm1.5558-0.46779c-0.40442-0.68928-0.81112 0.76879 0 0zm-6.0961 0.0851c-0.73359-0.50871-0.2373-0.86846 0.3287-1.2662 0.6651 0.41745 0.97271 1.2383-0.0942 1.3995l-0.074-0.0407-0.16046-0.0926zm0.66675-0.64037c-1.1528-0.66855-0.39109 0.9752 0 0zm18.923 0.57954c0.26325-0.46853 0.11743 0.58184 0-2.1e-5zm-16.828-0.30999c0.33104-0.38157 1.5579 0.19244 0.53226 0.12505-0.12059-0.0483-0.48938 0.0634-0.53226-0.12505zm15.761-0.0761c-0.57681-0.48744-1.9902 0.17835-2.2995-0.32235 0.67349-0.35583 2.7761-0.0863 2.3878 0.46579zm-21.055-0.39166c0.56483-0.0933-0.0718 0.23148 3e-5 0zm6.1198-0.50237c-0.62831-0.52428-0.1434-1.5379-0.26523-2.2821 0.0993-0.29994-0.22224-1.0633 0.26845-0.93238 0.45228-0.0694 1.1436 0.42996 0.30223 0.33932-0.64433 0.62943 0.34019 0.95521-0.27656 1.5467 0.22153 0.50349-0.17551 1.2102 0.60584 1.269-0.0523 0.29845-0.47618 0.13692-0.63473 0.0595zm18.224-0.0459c0.38354-0.42389 0.0347 0.44258 0 0zm-25.73-0.64843c-0.33948-0.2628-0.5294-0.97734-0.0397-0.26906 0.48852 0.40647 0.673 0.96193 0.0397 0.26908zm24.661 0.19335c0.14275-0.48304 0.0665 0.56551 0 0zm1.1093-0.91017c-0.0986-0.3868-3e-3 -2.4094 0.13088-1.121 0.063 0.4482-0.0347 2.5374-0.13091 1.121zm-17.78 0.38949c0.56483-0.0933-0.0718 0.23148 3e-5 0zm18.532-0.89749c-0.0331-0.66302 0.23167-0.93816 0.14366-0.1011 0.0847 0.072-0.12002 0.33458-0.14366 0.1011zm-26.637-0.36656c0.37071-0.60701 1.2567-1.3577 1.7445-1.4262-0.5269 0.50782-1.2154 0.99091-1.7445 1.4262zm24.765-0.4197c0.1-0.76653 0.24793 0.66635 1e-5 -4e-5zm-20.81-0.29422c-0.3198-0.55275-0.71462-0.88991 0.0529-1.2276 1.0861-0.25403 2.2228 0.3573 3.3877 0.0995 0.60783-0.12797 0.98805 0.21966 0.11813 0.26322-1.095 0.0543-2.4246-0.53434-3.0043 0.70294-0.15478 0.0847-0.3667 0.27092-0.55444 0.16189zm0.675-0.7205c-0.27486-0.73854-0.84771 0.46442-1e-5 3.17e-4zm4.6409 0.11823c-0.45578-0.25743-1.1662-0.0743-0.29366-0.28524 0.70132-0.20641-6.9e-4 -0.90709 0.24556-0.97384 1.2344-0.4838 1.4689 1.1664 0.32302 1.3598-0.0834 0.0259-0.27907 0.0461-0.27492-0.1007zm0.889-0.6985c-0.54378-0.74204-0.59697 0.73539 0 0zm13.462-0.18565c0.59564-1.3612 0.75546 1.0466 0 0zm-15.01-0.34561c0.56483-0.0933-0.0718 0.23148 3e-5 0zm5.439 5.9237c0.50131-0.79228-0.82054-2.5081 0.70399-2.1605 0.6212 0.21503 1.0377-1.0868 0.77655-0.0134-0.25651 0.42621-1.7332 0.53532-0.54651 0.75361 1.4758 0.0745 0.37901-2.4496 1.8786-1.6848 1.4197 0.18106 0.32184-1.9223-0.7145-1.4575-0.41608 1.4e-4 -2.4213-0.1994-1.195 0.39996 0.63075 0.21656 1.4291 0.95631 0.32519 0.32895-0.6456-0.4473-1.3778 0.56711-0.28659 0.52035 0.68302 0.0528 0.77469 0.51145 6.9e-4 0.23041-0.53418 0.0281-1.1066 0.21607-0.89654-0.52338v-1.8495c-0.69731 4e-3 -1.5685-0.13166-1.938 0.63138-0.6859 0.89508-0.66792 2.0317-0.55708 3.1077 0.22121 1.1398 1.1882 2.3561 2.4494 1.7169zm-1.4341-1.1374c-0.6951-0.6524-0.65424-2.1656 0.14443-2.6479-0.74617 0.74172 0.31736 1.0933 0.88878 0.7054 0.0964 0.77922 0.36799 2.5106-1.0332 1.9426zm0.83798-0.30983c0.83107-1.0677-1.417-1.5686-0.82985-0.28624 0.1416 0.28314 0.55555 0.68822 0.82985 0.28624zm-0.24712-2.4848c-0.89305-0.10802 0.13215-0.16388 0.47042-0.048 0.20691 0.34108-0.37725 4e-3 -0.47042 0.048zm-1.6124 3.4751c0.0898-0.53659-1.2071-1.9-1.0638-0.78234 0.18093 0.34021 0.59104 1.0625 1.0638 0.78234zm5.5694-0.59529c0.17732-0.17103 0.62775-1.6241 0.1935-1.2582-0.53561 0.72855-1.15-0.10906-1.5293 0.80252-0.55211 0.68256 0.68191 0.25369 0.91087 0.61478l0.21298-0.0448 0.21195-0.11427zm-6.4738-1.0921c0.35977-0.49061-0.12177-1.1592 0.40614-1.4984 0.35195-0.47024 0.69234-1.7027-0.23254-0.8886-0.37087 0.4294-1.0106 0.92371-0.37969 1.3325-0.51044 0.10083-1.5907 0.21518-0.88572 0.95042 0.34567 0.13533 0.72753 0.19239 1.0918 0.10405zm10.747-0.18417c0.31603-1.2265-1.731-0.53812-2.4804-0.61787-0.84649 0.87932 1.0575 0.97869 1.6905 0.80907 0.26491-0.0364 0.56032-0.0345 0.78996-0.1912zm-4.1659-0.14304c0.37526-0.9018-1.3582-0.51025-0.47258 0.14292 0.16478 0.10007 0.37179-4e-3 0.47258-0.14292zm5.461-0.1905c-0.41537-0.4261-1.303 0.27362-0.27649 0.11699 0.0838-0.0293 0.23443-0.0103 0.27649-0.11699zm-23.983-0.83685c0.96057-0.8876 2.0705-1.6408 3.1598-2.3381 0.93171-0.46053 1.939-0.81644 3.0101-0.72425 7.1313-0.0998 14.265 0.0396 21.396-0.12593 0.46144-0.22052-1.3188-0.19017-1.7182-0.2109-6.6895-0.0438-13.381-0.0603-20.07 0.0416-1.0838 0.0135-2.225 0.25772-3.0879 0.86527-1.0185 0.31045-1.7524 1.0933-2.5213 1.6782-0.53317 0.22828-1.8361 1.9271-0.51763 1.1394 0.12331-0.10067 0.23977-0.20984 0.3492-0.32524zm22.954-1.3775c0.73656 0.29586 1.4298-0.69247 0.39089-0.69896-0.51298-0.0646-2.485-0.081-1.63 0.73363 0.38682 0.17201 0.82777-0.0717 1.2391-0.0347zm0.0449-1.1717c-0.50395-0.10757-0.42579 0.20005 0 0z" stroke-width=".127"/>
</g>
</svg>
