<?xml version="1.0" encoding="UTF-8" standalone="no"?>
<svg
   xmlns:dc="http://purl.org/dc/elements/1.1/"
   xmlns:cc="http://creativecommons.org/ns#"
   xmlns:rdf="http://www.w3.org/1999/02/22-rdf-syntax-ns#"
   xmlns:svg="http://www.w3.org/2000/svg"
   xmlns="http://www.w3.org/2000/svg"
   width="20.334644mm"
   height="9.926445mm"
   viewBox="0 0 20.334644 9.9264449"
   version="1.1"
   id="svg836">
  <defs
     id="defs830" />
  <metadata
     id="metadata833">
    <rdf:RDF>
      <cc:Work
         rdf:about="">
        <dc:format>image/svg+xml</dc:format>
        <dc:type
           rdf:resource="http://purl.org/dc/dcmitype/StillImage" />
        <dc:title></dc:title>
      </cc:Work>
    </rdf:RDF>
  </metadata>
  <path
     style="opacity:1;vector-effect:none;fill:#a8b8d5;fill-opacity:1;fill-rule:nonzero;stroke:#000000;stroke-width:0;stroke-linecap:butt;stroke-linejoin:round;stroke-miterlimit:4;stroke-dasharray:none;stroke-dashoffset:0;stroke-opacity:1"
     d="M 6.4055317,0.52441302 19.103773,0.33373915 20.145422,2.2886112 19.993132,8.1231063 18.725043,9.8179524 7.0801528,9.6155284 5.6690035,9.2182004 3.9070207,9.1204037 2.2735623,7.214516 C 1.8701416,7.059354 0.1958483,4.9216703 0.1958483,4.9216703 L 1.6668957,2.9015517 2.8732419,2.1972652 3.763953,1.0015639 Z"
     id="rect814" />
  <g
     id="layer1"
     transform="translate(303.55327,22.265052)">
    <path
       style="fill:#000000;stroke-width:0.127"
       d="m -296.96229,-12.475118 c -0.69172,-0.25972 -1.47499,-0.53493 -2.24185,-0.40534 -0.90284,-0.0102 -1.28866,-1.05801 -1.80357,-1.63373 -0.7963,-0.55569 -1.483,-1.26469 -2.09104,-2.01839 -0.18809,-0.47176 -0.76071,-0.76999 -0.24337,-1.21895 0.52771,-1.010869 1.54079,-1.636869 2.36876,-2.379459 0.26196,-0.62783 0.89393,-1.14619 1.55319,-1.37083 0.60898,-0.26111 1.30415,-0.11414 1.93497,-0.3664 0.65702,-0.46684 1.49273,-0.31666 2.25722,-0.36863 3.59907,-0.0459 7.19857,-0.0203 10.79785,-0.027 0.34857,0.91984 1.18449,1.64896 1.16982,2.69654 0.0399,1.723019 0.0924,3.456659 -0.0639,5.174489 -0.23098,0.53213 -0.4889,1.07769 -0.82211,1.57116 -0.15286,0.23992 -0.25443,0.57188 -0.60272,0.46106 -3.98037,-0.0172 -7.96258,0.0541 -11.9413,-0.0783 0.01,0.12979 -0.27246,-0.12853 -0.272,-0.0362 z m 12.43748,-0.55823 c 0.12347,-0.52255 -1.21973,-0.1891 -1.69357,-0.30559 -3.59484,-0.0367 -7.1929,-0.0771 -10.78595,0.0571 -0.65437,0.26022 0.75872,0.32885 1.02053,0.30161 3.76272,0.06 7.52882,0.0918 11.29039,-0.0292 l 0.16864,-0.024 z m -14.78169,-0.31478 c -0.0828,-1.07873 -0.91152,0.46389 0,0 z m 1.73037,-0.0257 c 0.21246,-0.37743 -0.9523,0.105061 -0.15868,0.0887 l 0.0735,-0.037 z m -0.59044,-0.213891 c -0.48956,-0.47179 -1.2371,-0.68321 -1.74746,-1.17645 -0.47084,-0.28642 -1.00003,-0.94386 -1.4721,-0.80276 0.47813,0.57731 1.06254,1.17126 1.76163,1.46261 0.49125,0.0952 0.95695,0.73409 1.45793,0.5166 z m 13.11709,-0.24726 c 0.61724,-0.0948 0.59921,-0.96744 -0.052,-0.51329 -0.49004,-0.20657 -1.35188,0.64939 -1.34529,-0.36413 0.1727,-0.54833 1.14122,-0.20031 0.903,-1.02148 -0.19463,-0.84611 0.48896,-1.18331 1.17763,-1.32913 0.3865,-0.97542 -1.55906,-0.45614 -1.14496,-1.577179 0.0325,-0.41359 -0.2226,-1.73012 -0.72623,-1.31594 0.43905,0.95 -0.61013,-0.537 0.23986,-0.50542 0.50602,-0.0639 0.39902,0.81262 1.04852,0.59745 1.2635,0.20178 0.17156,-1.36754 -0.60852,-0.96874 -3.26482,-0.0384 -6.53416,-0.0773 -9.79595,0.0895 -0.81183,-0.002 -1.58228,0.23518 -2.25648,0.65029 -0.30559,0.56245 -1.23972,0.50785 -1.65887,1.06997 -0.59626,0.43192 -1.62753,1.099469 -1.5232,1.914929 0.68979,0.8527 1.48223,1.66517 2.42182,2.23878 0.50851,0.24302 0.89056,0.69784 1.40819,0.95567 0.23198,0.18658 0.48846,0.28832 0.78847,0.23922 3.4442,-0.007 6.88979,0.0684 10.33286,-0.0283 0.26605,-0.0213 0.54136,-0.0276 0.79118,-0.13215 z m -8.27215,-0.23775 c 0.37099,-0.0403 1.15671,-0.28357 0.37572,-0.43504 -1.1022,-0.25122 -2.23499,-0.0888 -3.34588,-0.0449 -0.34156,-0.3194 0.58276,-0.51953 0.82649,-0.27128 0.52523,-0.0972 1.8317,0.1918 1.16901,-0.73929 -0.19181,-0.80445 -1.0053,-0.90055 -1.54335,-1.25328 -0.46484,-0.96556 0.61345,-1.18699 1.15556,-1.605289 0.36294,-0.31281 1.11661,-1.36295 0.16418,-1.33396 0.5859,-0.23945 1.85358,-0.076 2.04925,-0.5947 -0.4541,-0.10791 -0.68825,-0.25313 -0.0923,-0.23778 0.73918,0.0619 1.64803,-0.21414 2.27036,0.28249 0.0197,0.92848 1.07937,0.60757 1.70788,0.69429 0.97757,-0.19444 1.63355,0.61751 1.5445,1.541209 0.0232,0.92236 0.0886,1.91421 -0.30771,2.77117 -0.40929,0.75022 -1.407,0.30738 -2.09858,0.46232 -0.72741,-0.10077 -0.77461,0.98124 -1.61037,0.75563 -0.75329,0.0252 -1.51352,0.061 -2.26478,0.008 z m 2.58323,-0.63504 c 0.11518,-0.80103 -1.2988,-0.91486 -1.56483,-1.63376 -0.40226,-0.63247 -0.39361,-1.47094 0.10368,-2.047949 0.24219,-0.36529 1.54577,-0.86009 0.93203,-0.0779 -0.84145,-0.0742 -1.11626,1.204429 -0.0516,0.913469 0.65146,0.38487 -0.31571,0.56672 -0.64885,0.58809 -0.52457,0.70499 0.67962,0.70151 0.8461,0.98912 -0.54602,0.49629 0.77359,0.79745 0.42273,0.002 1.1e-4,-0.34399 -0.0166,-0.6877 -0.0251,-1.03154 0.43198,0.0571 1.16067,0.17864 1.24235,-0.40006 -0.24046,-0.56324 -1.46538,-0.0763 -1.18826,-1.035179 0.26449,-0.52806 -0.39426,-0.86653 0.0699,-1.23165 -0.0403,-1.02151 -1.48365,-0.4549 -1.77271,0.182869 -0.2674,0.52324 -0.67591,0.948431 -0.67246,1.59789 -0.0946,1.16253 0.13765,2.43148 1.04664,3.24179 0.3269,0.37855 0.90815,0.15889 1.26044,-0.0569 z m -2.20324,-0.44242 c -0.27016,-0.41303 -0.58117,-1.40513 -1.19146,-1.26538 -0.16544,0.4323 0.70213,1.66035 1.19146,1.26538 z m 5.30404,-0.35089 c 0.27662,-0.39996 0.28886,-0.90128 0.36712,-1.36525 -0.45729,0.0416 -0.98511,-0.11649 -1.381,0.16157 -0.2007,0.65488 -1.37542,0.80561 -1.34303,1.36027 0.75308,0.0596 1.57508,0.18112 2.29115,-0.0954 l 0.0657,-0.0612 z m -0.6575,-0.74083 c 0.13589,-0.48131 0.0653,0.56748 0,0 z m -0.88648,-0.19335 c 0.5672,-0.52866 0.51909,-1.75223 -0.30478,-2.004339 -0.57448,-0.42811 -0.81635,0.482499 -0.1461,0.431229 0.95384,0.53637 -0.003,1.41434 -0.45068,1.9218 0.34003,0.16231 0.67551,-0.12311 0.90156,-0.34869 z m -4.84361,-0.55198 c 0.48823,-0.89426 -1.38905,-0.95793 -1.57013,-0.36151 0.0169,0.66356 1.15291,0.62133 1.57013,0.36151 z m 2.54506,-0.32359 c -0.56138,-0.50245 -0.71506,0.47791 0,0 z m 3.91327,-0.0952 c -0.31392,-0.71885 -1.02485,0.20537 -0.19979,0.22225 0.12772,0.0217 0.24739,-0.0925 0.19979,-0.22225 z m -0.40032,-0.56563 c 0.3523,0.10077 0.77579,0.0745 0.59904,-0.520689 0.0217,-0.87629 -0.92737,-0.86075 -1.56213,-0.82279 -0.51275,-0.08 -1.72491,0.23518 -0.63082,0.53211 0.67027,0.15143 0.80647,1.485739 1.59391,0.811369 z m -0.3179,-0.482119 c 0.13018,-0.76935 0.0567,0.721689 0,0 z m -5.1318,-0.0777 c 0.11564,-0.41105 0.95159,-1.06216 0.0533,-0.90618 -0.38238,0.18746 -1.4791,1.469649 -0.48026,1.327299 0.18601,-0.0876 0.31736,-0.253259 0.42695,-0.421119 z m -3.39725,3.635609 c -0.23084,-0.24353 0.13489,-0.65802 -0.0393,-0.92211 0.53739,-0.26971 1.1739,0.85065 0.31125,0.71466 -0.2435,0.19298 0.16633,0.47205 -0.27194,0.20745 z m 10.69276,-1.58943 c 0.0466,-0.65578 0.13509,0.55715 0.003,0.13561 z m -0.0147,-1.40758 c 0.13589,-0.481309 0.0653,0.56748 0,0 z m -10.69841,-1.107869 c 0.15538,-0.33902 -0.63157,-0.564 0.0157,-0.86467 0.39312,-0.59269 1.50982,-0.14342 0.84951,0.49963 -0.0127,0.23193 -0.95999,0.862 -0.8652,0.36504 z m 0.64934,-0.66683 c -0.50765,-0.4103 -0.69427,0.47306 -0.0225,0.22776 0.13294,-0.0198 0.10152,-0.16715 0.0225,-0.22776 z m 12.17264,5.887379 c 0.48678,-0.96667 -0.82522,0.58585 0,2e-5 z m -14.03332,-0.43621 c -0.54374,-0.6082 -1.33195,-1.02064 -1.89501,-1.64231 -0.5535,-0.41051 -1.19213,-1.52147 -1.95327,-1.05605 0.50905,0.827 1.46162,1.2413 2.16718,1.87992 0.49722,0.24513 1.1231,0.96755 1.6811,0.81844 z m 12.07983,-0.25048 c 0.69519,-0.55528 -0.83263,-0.44871 -0.17091,0.0589 l 0.17092,-0.0589 z m 2.36578,-0.90716 c -0.0213,-1.61684 0.0842,-3.245409 -0.11369,-4.853839 -0.26781,-0.59557 -0.49058,-1.64186 -1.35666,-1.44032 -3.82159,-0.0293 -7.64537,-0.071 -11.4659,0.0363 -0.71698,0.0428 -1.37111,0.3655 -2.02965,0.65172 -1.00863,0.57038 -2.24456,0.98324 -2.85174,2.03955 -0.61599,0.23345 -1.50224,0.740479 -1.54389,1.514539 0.77349,-0.1759 1.26045,-1.086669 1.95078,-1.512349 0.55959,-0.52599 1.32419,-0.81171 1.82583,-1.39147 0.85957,-0.16427 1.58955,-0.77512 2.45712,-0.84833 4.02363,-0.11725 8.04976,-0.0447 12.07456,-0.0529 0.38896,0.42166 0.7324,0.91878 0.70433,1.52216 0.0775,1.740059 -0.0441,3.484819 0.0498,5.223969 0.33337,0.44668 0.28034,-0.79657 0.29914,-0.88902 z m -0.77644,0.42306 c 0.20695,-0.56779 0.3045,-1.85697 -0.66206,-1.56113 -0.16946,0.32541 0.48552,0.76347 -0.042,1.16441 -0.44373,0.27243 0.52505,0.84158 0.70405,0.39672 z m -17.13645,-0.95704 c -0.35943,-0.41953 -0.47237,-0.958 -0.93212,-1.07793 -0.45685,-0.54454 -0.58288,0.19697 -0.12949,0.42185 0.25881,0.18236 0.73767,1.0219 1.06161,0.65608 z m 0.508,-1.82083 c 0.14765,-0.56184 1.1977,-0.997789 1.04049,-1.486939 -0.63436,0.33609 -1.14995,0.87981 -1.61324,1.422389 -0.25063,0.31103 0.54609,0.2962 0.57275,0.0646 z m 16.6116,-0.49634 c 0.45845,-0.523489 -0.0801,-1.858079 -0.7366,-1.109039 0.33475,0.16583 0.31248,0.9941 -0.0109,0.37962 -0.41524,0.34417 0.37266,1.213589 0.74754,0.729419 z m -14.644,-1.370149 c -0.19741,-0.25232 -0.45536,0.39278 -10e-6,10e-6 z m -0.26238,-1.22955 c 0.0992,-0.79071 -1.09382,0.006 -0.23929,0.18448 0.12512,0.0577 0.21756,-0.0872 0.23929,-0.18448 z"
       id="path892" />
  </g>
</svg>
