<?xml version="1.0" encoding="UTF-8"?>
<svg width="20.335mm" height="9.9264mm" version="1.1" viewBox="0 0 20.335 9.9264" xmlns="http://www.w3.org/2000/svg" xmlns:cc="http://creativecommons.org/ns#" xmlns:dc="http://purl.org/dc/elements/1.1/" xmlns:rdf="http://www.w3.org/1999/02/22-rdf-syntax-ns#">
<metadata>
<rdf:RDF>
<cc:Work rdf:about="">
<dc:format>image/svg+xml</dc:format>
<dc:type rdf:resource="http://purl.org/dc/dcmitype/StillImage"/>
<dc:title/>
</cc:Work>
</rdf:RDF>
</metadata>
<path d="m6.4055 0.52441 12.698-0.19067 1.0416 1.9549-0.15229 5.8345-1.2681 1.6948-11.645-0.20242-1.4111-0.39733-1.762-0.097797-1.6335-1.9059c-0.40342-0.15516-2.0777-2.2928-2.0777-2.2928l1.471-2.0201 1.2063-0.70429 0.89071-1.1957z" fill="#a8b8d5" stroke-width="0"/>
<g transform="translate(303.55 22.265)">
<path d="m-296.96-12.475c-0.69172-0.25972-1.475-0.53493-2.2418-0.40534-0.90284-0.0102-1.2887-1.058-1.8036-1.6337-0.7963-0.55569-1.483-1.2647-2.091-2.0184-0.18809-0.47176-0.76071-0.76999-0.24337-1.219 0.52771-1.0109 1.5408-1.6369 2.3688-2.3795 0.26196-0.62783 0.89393-1.1462 1.5532-1.3708 0.60898-0.26111 1.3042-0.11414 1.935-0.3664 0.65702-0.46684 1.4927-0.31666 2.2572-0.36863 3.5991-0.0459 7.1986-0.0203 10.798-0.027 0.34857 0.91984 1.1845 1.649 1.1698 2.6965 0.0399 1.723 0.0924 3.4567-0.0639 5.1745-0.23098 0.53213-0.4889 1.0777-0.82211 1.5712-0.15286 0.23992-0.25443 0.57188-0.60272 0.46106-3.9804-0.0172-7.9626 0.0541-11.941-0.0783 0.01 0.12979-0.27246-0.12853-0.272-0.0362zm12.437-0.55823c0.12347-0.52255-1.2197-0.1891-1.6936-0.30559-3.5948-0.0367-7.1929-0.0771-10.786 0.0571-0.65437 0.26022 0.75872 0.32885 1.0205 0.30161 3.7627 0.06 7.5288 0.0918 11.29-0.0292l0.16864-0.024zm-14.782-0.31478c-0.0828-1.0787-0.91152 0.46389 0 0zm1.7304-0.0257c0.21246-0.37743-0.9523 0.10506-0.15868 0.0887l0.0735-0.037zm-0.59044-0.21389c-0.48956-0.47179-1.2371-0.68321-1.7475-1.1764-0.47084-0.28642-1-0.94386-1.4721-0.80276 0.47813 0.57731 1.0625 1.1713 1.7616 1.4626 0.49125 0.0952 0.95695 0.73409 1.4579 0.5166zm13.117-0.24726c0.61724-0.0948 0.59921-0.96744-0.052-0.51329-0.49004-0.20657-1.3519 0.64939-1.3453-0.36413 0.1727-0.54833 1.1412-0.20031 0.903-1.0215-0.19463-0.84611 0.48896-1.1833 1.1776-1.3291 0.3865-0.97542-1.5591-0.45614-1.145-1.5772 0.0325-0.41359-0.2226-1.7301-0.72623-1.3159 0.43905 0.95-0.61013-0.537 0.23986-0.50542 0.50602-0.0639 0.39902 0.81262 1.0485 0.59745 1.2635 0.20178 0.17156-1.3675-0.60852-0.96874-3.2648-0.0384-6.5342-0.0773-9.796 0.0895-0.81183-2e-3 -1.5823 0.23518-2.2565 0.65029-0.30559 0.56245-1.2397 0.50785-1.6589 1.07-0.59626 0.43192-1.6275 1.0995-1.5232 1.9149 0.68979 0.8527 1.4822 1.6652 2.4218 2.2388 0.50851 0.24302 0.89056 0.69784 1.4082 0.95567 0.23198 0.18658 0.48846 0.28832 0.78847 0.23922 3.4442-7e-3 6.8898 0.0684 10.333-0.0283 0.26605-0.0213 0.54136-0.0276 0.79118-0.13215zm-8.2722-0.23775c0.37099-0.0403 1.1567-0.28357 0.37572-0.43504-1.1022-0.25122-2.235-0.0888-3.3459-0.0449-0.34156-0.3194 0.58276-0.51953 0.82649-0.27128 0.52523-0.0972 1.8317 0.1918 1.169-0.73929-0.19181-0.80445-1.0053-0.90055-1.5434-1.2533-0.46484-0.96556 0.61345-1.187 1.1556-1.6053 0.36294-0.31281 1.1166-1.363 0.16418-1.334 0.5859-0.23945 1.8536-0.076 2.0492-0.5947-0.4541-0.10791-0.68825-0.25313-0.0923-0.23778 0.73918 0.0619 1.648-0.21414 2.2704 0.28249 0.0197 0.92848 1.0794 0.60757 1.7079 0.69429 0.97757-0.19444 1.6336 0.61751 1.5445 1.5412 0.0232 0.92236 0.0886 1.9142-0.30771 2.7712-0.40929 0.75022-1.407 0.30738-2.0986 0.46232-0.72741-0.10077-0.77461 0.98124-1.6104 0.75563-0.75329 0.0252-1.5135 0.061-2.2648 8e-3zm2.5832-0.63504c0.11518-0.80103-1.2988-0.91486-1.5648-1.6338-0.40226-0.63247-0.39361-1.4709 0.10368-2.0479 0.24219-0.36529 1.5458-0.86009 0.93203-0.0779-0.84145-0.0742-1.1163 1.2044-0.0516 0.91347 0.65146 0.38487-0.31571 0.56672-0.64885 0.58809-0.52457 0.70499 0.67962 0.70151 0.8461 0.98912-0.54602 0.49629 0.77359 0.79745 0.42273 2e-3 1.1e-4 -0.34399-0.0166-0.6877-0.0251-1.0315 0.43198 0.0571 1.1607 0.17864 1.2424-0.40006-0.24046-0.56324-1.4654-0.0763-1.1883-1.0352 0.26449-0.52806-0.39426-0.86653 0.0699-1.2316-0.0403-1.0215-1.4836-0.4549-1.7727 0.18287-0.2674 0.52324-0.67591 0.94843-0.67246 1.5979-0.0946 1.1625 0.13765 2.4315 1.0466 3.2418 0.3269 0.37855 0.90815 0.15889 1.2604-0.0569zm-2.2032-0.44242c-0.27016-0.41303-0.58117-1.4051-1.1915-1.2654-0.16544 0.4323 0.70213 1.6604 1.1915 1.2654zm5.304-0.35089c0.27662-0.39996 0.28886-0.90128 0.36712-1.3652-0.45729 0.0416-0.98511-0.11649-1.381 0.16157-0.2007 0.65488-1.3754 0.80561-1.343 1.3603 0.75308 0.0596 1.5751 0.18112 2.2912-0.0954l0.0657-0.0612zm-0.6575-0.74083c0.13589-0.48131 0.0653 0.56748 0 0zm-0.88648-0.19335c0.5672-0.52866 0.51909-1.7522-0.30478-2.0043-0.57448-0.42811-0.81635 0.4825-0.1461 0.43123 0.95384 0.53637-3e-3 1.4143-0.45068 1.9218 0.34003 0.16231 0.67551-0.12311 0.90156-0.34869zm-4.8436-0.55198c0.48823-0.89426-1.389-0.95793-1.5701-0.36151 0.0169 0.66356 1.1529 0.62133 1.5701 0.36151zm2.5451-0.32359c-0.56138-0.50245-0.71506 0.47791 0 0zm3.9133-0.0952c-0.31392-0.71885-1.0248 0.20537-0.19979 0.22225 0.12772 0.0217 0.24739-0.0925 0.19979-0.22225zm-0.40032-0.56563c0.3523 0.10077 0.77579 0.0745 0.59904-0.52069 0.0217-0.87629-0.92737-0.86075-1.5621-0.82279-0.51275-0.08-1.7249 0.23518-0.63082 0.53211 0.67027 0.15143 0.80647 1.4857 1.5939 0.81137zm-0.3179-0.48212c0.13018-0.76935 0.0567 0.72169 0 0zm-5.1318-0.0777c0.11564-0.41105 0.95159-1.0622 0.0533-0.90618-0.38238 0.18746-1.4791 1.4696-0.48026 1.3273 0.18601-0.0876 0.31736-0.25326 0.42695-0.42112zm-3.3972 3.6356c-0.23084-0.24353 0.13489-0.65802-0.0393-0.92211 0.53739-0.26971 1.1739 0.85065 0.31125 0.71466-0.2435 0.19298 0.16633 0.47205-0.27194 0.20745zm10.693-1.5894c0.0466-0.65578 0.13509 0.55715 3e-3 0.13561zm-0.0147-1.4076c0.13589-0.48131 0.0653 0.56748 0 0zm-10.698-1.1079c0.15538-0.33902-0.63157-0.564 0.0157-0.86467 0.39312-0.59269 1.5098-0.14342 0.84951 0.49963-0.0127 0.23193-0.95999 0.862-0.8652 0.36504zm0.64934-0.66683c-0.50765-0.4103-0.69427 0.47306-0.0225 0.22776 0.13294-0.0198 0.10152-0.16715 0.0225-0.22776zm12.173 5.8874c0.48678-0.96667-0.82522 0.58585 0 2e-5zm-14.033-0.43621c-0.54374-0.6082-1.332-1.0206-1.895-1.6423-0.5535-0.41051-1.1921-1.5215-1.9533-1.056 0.50905 0.827 1.4616 1.2413 2.1672 1.8799 0.49722 0.24513 1.1231 0.96755 1.6811 0.81844zm12.08-0.25048c0.69519-0.55528-0.83263-0.44871-0.17091 0.0589l0.17092-0.0589zm2.3658-0.90716c-0.0213-1.6168 0.0842-3.2454-0.11369-4.8538-0.26781-0.59557-0.49058-1.6419-1.3567-1.4403-3.8216-0.0293-7.6454-0.071-11.466 0.0363-0.71698 0.0428-1.3711 0.3655-2.0296 0.65172-1.0086 0.57038-2.2446 0.98324-2.8517 2.0396-0.61599 0.23345-1.5022 0.74048-1.5439 1.5145 0.77349-0.1759 1.2604-1.0867 1.9508-1.5123 0.55959-0.52599 1.3242-0.81171 1.8258-1.3915 0.85957-0.16427 1.5896-0.77512 2.4571-0.84833 4.0236-0.11725 8.0498-0.0447 12.075-0.0529 0.38896 0.42166 0.7324 0.91878 0.70433 1.5222 0.0775 1.7401-0.0441 3.4848 0.0498 5.224 0.33337 0.44668 0.28034-0.79657 0.29914-0.88902zm-0.77644 0.42306c0.20695-0.56779 0.3045-1.857-0.66206-1.5611-0.16946 0.32541 0.48552 0.76347-0.042 1.1644-0.44373 0.27243 0.52505 0.84158 0.70405 0.39672zm-17.136-0.95704c-0.35943-0.41953-0.47237-0.958-0.93212-1.0779-0.45685-0.54454-0.58288 0.19697-0.12949 0.42185 0.25881 0.18236 0.73767 1.0219 1.0616 0.65608zm0.508-1.8208c0.14765-0.56184 1.1977-0.99779 1.0405-1.4869-0.63436 0.33609-1.15 0.87981-1.6132 1.4224-0.25063 0.31103 0.54609 0.2962 0.57275 0.0646zm16.612-0.49634c0.45845-0.52349-0.0801-1.8581-0.7366-1.109 0.33475 0.16583 0.31248 0.9941-0.0109 0.37962-0.41524 0.34417 0.37266 1.2136 0.74754 0.72942zm-14.644-1.3701c-0.19741-0.25232-0.45536 0.39278-1e-5 1e-5zm-0.26238-1.2296c0.0992-0.79071-1.0938 6e-3 -0.23929 0.18448 0.12512 0.0577 0.21756-0.0872 0.23929-0.18448z" stroke-width=".127"/>
</g>
</svg>
