<svg width="51.507mm" height="9.7849mm" version="1.1" viewBox="0 0 51.507 9.7849" xmlns="http://www.w3.org/2000/svg" xmlns:cc="http://creativecommons.org/ns#" xmlns:dc="http://purl.org/dc/elements/1.1/" xmlns:rdf="http://www.w3.org/1999/02/22-rdf-syntax-ns#">
<metadata>
<rdf:RDF>
<cc:Work rdf:about="">
<dc:format>image/svg+xml</dc:format>
<dc:type rdf:resource="http://purl.org/dc/dcmitype/StillImage"/>
<dc:title/>
</cc:Work>
</rdf:RDF>
</metadata>
<path d="m8.3052 0.094303h39.597l3.5213 0.94923 0.084 7.8476-3.6053 0.77473h-39.597l-4.2315-1.3632-4.065-3.4748 2.3927-2.0201z" fill="#a8b8d5" stroke-width="0"/>
<g transform="translate(268.41 -11.649)" fill="#010101">
<path d="m-260.11 21.315c-1.5283-0.92744-3.6481-0.42386-4.8392-1.5824-0.77372-1.1491-2.6355-1.6501-3.3704-2.8811-0.62704-1.0701 2.0055-2.0963 2.8816-2.8754 0.86853-0.80236 2.053-1.6009 3.6307-1.6711 1.531-0.54745 3.15-0.63985 4.823-0.59115 12.156-0.0719 24.315-0.11132 36.471 0.0292 1.1305 0.22237 2.5384 0.62475 3.5213 0.94923 0.0281 2.6159 0.056 5.2318 0.084 7.8476-1.4835 0.22356-2.7791 0.95978-4.3341 0.81363-12.785 0.0975-25.573 0.11981-38.358-0.0115l-0.36296-0.0132-0.14665-0.0142zm1.1241-0.63124c-1.2496-0.32192-2.9931-1.2562-4.0727-0.96353 1.1317 0.43989 2.8068 1.2648 4.0727 0.96353zm19.913-0.06c-0.47562-0.25299-2.7283-0.13218-0.92567-0.41533 0.3826-0.39176 1.2565 0.24075 0.81206-0.6624-0.60388 0.5105-0.64494-0.71843-1.7936-0.32664-1.3431-0.1809-2.9991 1.334-0.6752 1.0911-0.61248 0.35648-3.479 0.14222-4.86 0.21591-0.82224-0.0623-2.8909 0.1082-2.9309-0.18464 1.0222-0.21348 3.2499 0.23081 3.5756-0.35246-1.3506-0.0692-2.8092-0.0175-3.737-0.30354-1.175 0.13674-2.0724 1.3694-0.28543 1.0651 3.529 0.0397 7.0678 0.11763 10.592-0.0359 0.20259 0.15994 0.13901-0.095 0.22808-0.0912zm8.511 0.0764c-0.63443-0.42014-1.1371-1.3163-2.0052-1.3972-1.8282 0.0153-3.7245 7e-3 -5.497 0.11895-0.39803-1.3728 2.1177-5e-3 3.1301-0.39617 1.0039 0.0464 2.0838-0.0644 3.0425 0.0736 0.78111 0.51148 1.5033 1.1786 2.3757 1.5396 2.5557-0.0689 5.1246-3e-3 7.6685-0.21441 1.0383-0.14486-1.5399-0.69738-0.0899-1.284 0.95766-1.1068 2.7735 0.20849 1.2949 0.88117 1.4441-0.27186 3.41-0.81006 2.9226-2.2868-0.21353-1.2883 0.60686-3.1816-1.0659-3.9972-1.0139-0.58775-1.2851-0.044-1.2832 0.67091-0.95894 0.14447-2.872-0.29331-2.3031-1.3562-0.15931-0.91862-2.9891-0.23884-4.1537-0.39946-1.7231 5e-3 -3.7156-0.16497-4.8483 1.112-0.43683 0.45368-0.97855 0.7101-1.7141 0.60205-0.94623 0.12478-3.0541-0.25483-3.0222 0.37565 0.63671 0.64575 2.125 1.7611 2.3836 1.8467-1.2085 0.33981-2.0681 2.6013-3.3295 1.6738-0.68791 0.55534-1.7479-0.25304-0.31821-0.35796 2.2415 0.45351 3.9464-2.2866 1.1516-2.6791-0.82992-0.24727-2.4719 0.58645-1.7548-0.52257 0.86333 0.64986 2.2928-0.35244 0.49575-0.3298-1.015 0.18128-0.72015-1.0709 0.16502-0.40019 1.8712-0.24964 4.2254 0.50845 5.7383-0.60665 0.85239-0.43078 1.9625-1.3049 0.11519-1.0901-2.2667-8e-3 -4.5645-0.1329-6.8124 0.0692-0.3689 0.55671-0.98397 1.0433-1.4683 0.36627 1.4162-0.69672-2.8037-0.32776-3.603-0.45029-2.5069 7e-3 -5.018-0.0259-7.5219 0.0545-0.24815 0.22441 0.92788 1.4755 1.5106 1.477 1.608-0.82669 3.6441-0.36671 5.447-0.48118 1.6085 0.21618 3.7145 0.97674 4.9991 0.44021-0.30956 0.70792-3.5012 0.48804-1.4441 1.1744 0.96314 0.1799 1.7295-0.77703 1.4848 0.44678-0.0584 0.99856 0.32508 2.6828-0.14429 3.2969-0.39784-1.2581-1.3654 0.53321 0.0271 0.34732 0.22495 0.32035 0.48233 2.3027 0.90354 1.0516-0.072-0.50881 0.18407 0.60765 1.0085 0.22225 1.2043 0.0332 2.023 0.0313 2.4686-0.51745 0.74235-0.13129 1.7914-0.21562 0.59606 0.25754-0.65895 0.86746-3.7559 0.10539-3.6908 0.69488 2.3706 0.0956 4.776 0.13126 7.141-0.0267zm-2.0876-0.28141c0.53868-0.54394 0.11127 0.49713 0 0zm-0.1907-0.72176c0.98769-0.12746-0.29847 0.24563 0 0zm1.7966-0.54824c0.4324-0.51188 0.37844 0.49447 0 0zm0.86257-1.402c-0.18805-0.50123-1.5871-1.2614-0.58611-1.6688 1.0775-1.0788 2.991-1.1026 4.5395-0.78247 0.97588 0.41537 0.20591 1.5022 1.8397 0.97874 0.97041 0.10771 2.0846 0.14065 1.9979-0.49947 1.4516 1.4278-1.645 1.4818-2.2277 1.5641-0.82712-0.69729-1.7475 1.0539-2.9446 0.39578-0.87118 6e-3 -1.7501 0.0871-2.6186 0.0121zm3.134-0.43211c2.2243 0.0356 0.64523-2.7247-0.84242-1.7646-1.4256-0.59796-3.9572 0.96364-1.7557 1.7433 0.84702 0.25148 1.7332 0.0135 2.5981 0.0213zm-2.2197-0.50544c-0.1066-0.62057 0.83074 0.55657 0 0zm1.8772-0.39099c0.142-1.1901 0.34731 1.1571 0 0zm5.1382 0.34925c-0.74712-0.21722-3.2305-0.33807-3.2934 0.14009 1.074 0.10128 2.254 0.10153 3.2934-0.14009zm3.0154 0.38279c-0.0805-0.6446-0.8624 0.65782-0.71603-0.38246-0.24824-0.80606 0.45324-1.6376 0.45152-0.36012 0.24292 0.56417 0.4147-1.7243 0.49477-0.21392-0.0348 0.14156 0.11721 2.0566-0.23026 0.9565zm-18.874-0.10454c0.38127-0.45327 0.11898 0.57581 0 0zm19.581-0.0878c-0.3539-0.59276 0.23843-2.14 0.48985-0.78266 0.0484 0.24481 5e-3 1.6721-0.48985 0.78266zm-19.581-0.95746c0.14379-0.34504 0.80744 0.45972 0.0708 0.13057zm7.1684-1.7659c-0.40795-0.68379 1.0709 3e-3 0 0zm0.64967-0.7219c0.46446-1.2817 1.0256 0.49274 0 0zm-7.816-0.45998c-0.28366-0.7431 0.84617-0.32567 1.3787-0.39868 0.90261 0.0935 3.0371-0.21578 2.6209 0.76314-1.0547-0.4691-3.7032 0.1825-3.9996-0.36446zm2.7915-0.10583c-0.22226-0.40364-0.43491 0.33636 0 0zm2.4755 0.40008c0.98768-0.12746-0.29844 0.24563 0 0zm-10.677-0.63161c0.88291-0.38532 0.98662 0.26073 0 0zm2.7182-4e-3c1.2959-0.0903 0.16219 0.19338 0 0zm22.407 7.6873c1.1725-0.13488 1.2343-1.509-0.0412-0.65719-0.91196 0.28463-2.8506 1.4635-0.66388 0.8746l0.34516-0.0991zm-33.257 0.0472c1.0445-0.2653 1.1264-2.1958 0.0503-1.1065 0.0504 0.61848-2.7898 0.55955-1.5092 0.14134-0.98494-0.96878 0.44652-0.57554 0.91361-0.93802-1.2824-0.38811-2.5204-1.0832-3.907-0.60879-0.9614-1.0473 1.3928-0.60112 2.1932-0.69006 0.76068 0.0769 0.55299-1.7731-0.53514-1.2847-0.76925 0.24518-3.022-0.19912-1.3744-0.61466 1.9824 0.35426 3.213-1.0462 5.1988-0.64165 1.9302-0.24796-0.587-1.7849-1.4074-1.9674-1.9175-0.0632-3.9026-0.26299-5.6777 0.0971-1.7962 0.0429-3.1133 0.95931-4.5949 1.4374-1.0674-0.51639-2.5175 0.87277-3.5442 1.5176-1.7802 0.73108-0.34622 1.6172 0.95809 2.3532 0.89716 0.5578 2.0865 1.1981 3.1288 0.97118-0.74888 0.82486 2.2689 0.90923 3.0257 1.2493 2.3291 0.23376 4.7429 0.20937 7.0815 0.0848zm-8.3236-1.2011c-1.5861-1.028 1.8762-1.3725 1.1356-0.0697-0.54718 0.16354-0.96949 1.0169-1.1356 0.0697zm0.98649-0.41341c-0.81091-0.76784-0.80324 0.74589 0 0zm-2.2783-0.0233c0.98769-0.12746-0.29848 0.24563 0 0zm-0.38962-1.0109c-0.72376-0.22924-1.4124-0.94974-2.5992-0.94765 0.71825-0.11298 2.9919-0.31316 0.97396-0.4699-1.0912 0.0354-1.3545-0.40158-0.0262-0.28351 1.5229-8e-3 2.3529-1.2048 3.9587-0.75686 1.0793-0.15691 1.7338 0.70918 0.29764 0.31131-1.6822-0.56111-3.117 1.0535-1.6202 1.8984 0.63414-0.10575 2.3652 0.43356 2.2965-0.40145 0.10128-0.93477 0.75283-1.2076 0.49562-0.0803-0.27365 1.3269-2.6115 0.82-3.7767 0.73zm-0.0621-0.87829c-0.38127-0.45327-0.11899 0.57581 0 0zm-3.5329 0.22194c-1.2231-0.83591 1.1082-1.8727 1.7664-2.5639 1.889-0.61699-1.0236 0.78428-1.3095 1.3335-0.83797 0.25075-0.0348 1.5701-0.4569 1.2304zm4.8176-0.78594c0.55145-0.54479 0.0991 0.49942 0 0zm0.51769-1.3664c-0.39841-0.68579-1.1457-0.74023 0.0679-1.0641 1.6876-0.79595 1.558 1.1224-0.0679 1.0641zm0.92758-0.72914c-0.93819-0.74954-0.93101 0.73761 0 0zm5.1619-0.0282c1.3225-7e-3 -0.23642-1.3365 1.3154-0.91232 2.1428 0.52634-0.53954 1.3464-1.3154 0.91232zm1.7432-0.42988c-0.97012-0.51395-0.65539 0.69232 0 0zm-4.5767 0.25719c-1.0167-0.0602-1.0411-0.091-6e-3 -0.0903 0.64203-0.0776 2.3409 0.0694 0.76971 0.12885l-0.36674-0.0135-0.39629-0.025zm1.656-0.71135c0.98769-0.12746-0.29847 0.24563 0 0zm11.293 6.7244c-0.47949-0.32269-2.3472 2e-3 -0.72765 0.17687 0.25955 0.0263 0.52961-0.0432 0.72765-0.17687zm23.04-0.45814c1.4513-1.517-2.907 0.14642-0.70745 0.2861 0.26352-0.0416 0.50478-0.14906 0.70745-0.2861zm-42.747-0.16061c0.42383-0.3805-1.47-0.99616-1.9346-1.1382-0.1229 0.54956 1.3019 1.2781 1.9346 1.1382zm19.642-0.0667c0.69543 0.0293 1.3752 0.0322 1.7196-0.52934 0.48531-0.29681 0.74695-1.0037 1.4073-0.97958 1.2271 0.28727 2.2379-0.39983 1.0224-1.1468 0.35663-0.38207 1.1553-1.7403-0.0874-1.5185-2.0729 0.11326-2.6355-2.248-4.9459-1.5792-1.6062 0.14155-4.5449-0.56999-4.7622 1.2646-0.41222 1.168-0.30912 2.7406 0.19386 3.6019 0.55074 1.8461 3.7429 0.58446 5.4522 0.88684zm-3.5456-0.48712c-1.5471-0.92719-0.9647-2.8693-0.6102-4.1426 0.35206-0.6625 2.487-0.97388 0.86595-0.24439-1.3326 0.91379-0.96241 2.7359-0.25552 3.8467 0.9267 0.23879 1.4735 1.203-2.3e-4 0.54022zm3.9098 0.13882c-2.1149 0.26397-3.1499-1.5307-2.6013-2.9712 0.0292-0.43422 0.62131-2.1002 0.50989-0.83774 0.194 1.1006-0.39039 2.3733 0.47724 3.3266 2.5226 0.99875 0.93765-1.956 1.5491-2.8967 0.92835-0.70896-0.53713-1.6405-1.5994-1.4159 1.5933-0.38592 2.7661 0.84804 2.3076 2.1231-0.084 0.75664 0.23045 2.5584-0.64319 2.6717zm-0.16059-3.7699c0.38127-0.45326 0.11899 0.5758 0 0zm-0.45162-0.31794c0.66716-0.73687 0.34804 0.41453 0 0zm-8.0594 4.3969c-0.35579-0.44723-0.40596 0.23578 0 0zm11.766-0.5353c-0.90559-0.124-0.32233 0.2027 0 0zm-25.456-0.73501c-0.097-0.64695-2.6952-2.0329-1.5747-0.69516 0.27321 0.0904 2.0804 1.6487 1.5747 0.69516zm13.529-7e-3c0.98645-0.18321 1.5936-0.61883 0.98207-1.5003 0.8465-0.58443 0.97167-1.7067-0.58792-1.301-1.0943 0.66593-0.3719 2.2768-1.1065 2.9348 0.1953 0.075 0.68088 0.11625 0.71238-0.1334zm-0.62186-1.1748c0.49394-0.58254-0.97728 0.7364 0 0zm13.79-0.15875c-0.43239-0.51183-0.37849 0.49448 0 0zm-11.315-0.26245c0.20207-0.52887-0.70038 0.46735 0 0zm-16.163-0.65833c0.68706-1.2329 2.9135-1.2927 3.6129-2.3407-1.8516 0.24415-3.3234 1.5633-4.6513 2.5619-0.80442 0.97792 0.91382 0.033 1.0384-0.22121zm13.988-0.58844c1.5553-0.37352-0.4471-0.59903-0.41101 0.0795 0.12619 0.0495 0.36189 0.0578 0.41101-0.0795zm32.223-1.2278c0.0529-1.2856-2.8739-0.64292-0.88888 0.0501 0.28107 0.0345 0.76222 0.30144 0.88888-0.0501zm-40.661-0.94603c0.90633-1.1085-3.1794 0.76669-0.88285 0.24228 0.28272-0.10372 0.57175-0.20475 0.88285-0.24228zm43.607 0.25001c-0.33203-0.93735-4.5303-0.89638-1.7664-0.24999 0.50318-0.026 1.5742 0.88405 1.7664 0.24999z" fill="#010101"/>
</g>
</svg>
