<?xml version="1.0" encoding="UTF-8"?>
<svg width="40.735mm" height="9.7849mm" version="1.1" viewBox="0 0 40.735 9.7849" xmlns="http://www.w3.org/2000/svg" xmlns:cc="http://creativecommons.org/ns#" xmlns:dc="http://purl.org/dc/elements/1.1/" xmlns:rdf="http://www.w3.org/1999/02/22-rdf-syntax-ns#">
<metadata>
<rdf:RDF>
<cc:Work rdf:about="">
<dc:format>image/svg+xml</dc:format>
<dc:type rdf:resource="http://purl.org/dc/dcmitype/StillImage"/>
<dc:title/>
</cc:Work>
</rdf:RDF>
</metadata>
<g transform="translate(282.98 -6.2077)">
<path d="m-274.52 6.0708 28.662 0.2312 3.5213 0.94923 0.084 7.8476-3.6053 0.77473-28.662-0.2312-1.8254-0.02655-3.1366-1.0725-3.3344-3.2979 0.78199-1.2379 2.997-2.5465z" fill="#a8b8d5" stroke-width="0"/>
<path d="m-276.42 15.874c-1.2087-0.92744-2.8851-0.42386-3.8271-1.5824-0.6119-1.1491-2.0843-1.6501-2.6655-2.8811-0.4959-1.0701 1.586-2.0963 2.279-2.8754 0.68688-0.80236 1.6236-1.6009 2.8714-1.6711 1.2108-0.54745 2.4912-0.63985 3.8143-0.59115 9.614-0.0719 19.23-0.11132 28.843 0.0292 0.89407 0.22237 2.0076 0.62475 2.7849 0.94923 0.0222 2.6159 0.0443 5.2318 0.0664 7.8477-1.1732 0.22356-2.1978 0.95978-3.4277 0.81363-10.111 0.0975-20.225 0.11981-30.336-0.0115l-0.28705-0.0132-0.11598-0.0142zm0.889-0.63124c-0.98829-0.32192-2.3671-1.2562-3.2209-0.96353 0.89504 0.43989 2.2198 1.2648 3.2209 0.96353zm15.748-0.06c-0.37615-0.25299-2.1577-0.13218-0.73207-0.41533 0.30258-0.39176 0.99369 0.24075 0.64222-0.6624-0.47758 0.5105-0.51005-0.71843-1.4184-0.32664-1.0622-0.1809-2.3718 1.334-0.53399 1.0911-0.48438 0.35648-2.7514 0.14222-3.8435 0.21591-0.65028-0.0623-2.2863 0.1082-2.3179-0.18464 0.80844-0.21348 2.5702 0.23081 2.8278-0.35246-1.0681-0.0692-2.2217-0.0175-2.9555-0.30354-0.92922 0.13674-1.639 1.3694-0.22573 1.0651 2.7909 0.0397 5.5896 0.11763 8.3768-0.0359 0.16022 0.15994 0.10994-0.095 0.18038-0.0912zm6.731 0.0764c-0.50175-0.42014-0.8993-1.3163-1.5858-1.3972-1.4458 0.0153-2.9456 7e-3 -4.3474 0.11895-0.31479-1.3728 1.6748-5e-3 2.4754-0.39617 0.79398 0.0464 1.648-0.0644 2.4062 0.0736 0.61775 0.51148 1.1889 1.1786 1.8788 1.5396 2.0212-0.0689 4.0529-3e-3 6.0647-0.21441 0.82114-0.14486-1.2179-0.69738-0.0711-1.284 0.75738-1.1068 2.1935 0.20849 1.0241 0.88117 1.142-0.27186 2.6969-0.81006 2.3113-2.2868-0.16887-1.2883 0.47994-3.1816-0.843-3.9972-0.80188-0.58775-1.0163-0.044-1.0148 0.67091-0.75839 0.14447-2.2714-0.29331-1.8214-1.3562-0.12599-0.91862-2.3639-0.23884-3.285-0.39946-1.3628 5e-3 -2.9385-0.16497-3.8343 1.112-0.34547 0.45368-0.77389 0.7101-1.3556 0.60205-0.74833 0.12478-2.4154-0.25483-2.3902 0.37565 0.50355 0.64575 1.6806 1.7611 1.8851 1.8467-0.95575 0.33981-1.6356 2.6013-2.6332 1.6738-0.54404 0.55534-1.3824-0.25304-0.25166-0.35796 1.7727 0.45351 3.121-2.2866 0.91076-2.6791-0.65635-0.24727-1.9549 0.58645-1.3878-0.52257 0.68277 0.64986 1.8132-0.35244 0.39207-0.3298-0.8027 0.18128-0.56954-1.0709 0.13051-0.40019 1.4798-0.24964 3.3417 0.50845 4.5382-0.60665 0.67412-0.43078 1.5521-1.3049 0.0911-1.0901-1.7926-8e-3 -3.6099-0.1329-5.3876 0.0692-0.29175 0.55671-0.77818 1.0433-1.1612 0.36627 1.12-0.69672-2.2174-0.32776-2.8494-0.45029-1.9826 7e-3 -3.9685-0.0259-5.9487 0.0545-0.19625 0.22441 0.73382 1.4755 1.1947 1.477 1.2717-0.82669 2.8819-0.36671 4.3078-0.48118 1.2721 0.21618 2.9377 0.97674 3.9536 0.44021-0.24482 0.70792-2.769 0.48804-1.1421 1.1744 0.76171 0.1799 1.3678-0.77703 1.1743 0.44678-0.0462 0.99856 0.25709 2.6828-0.11411 3.2969-0.31464-1.2581-1.0798 0.53321 0.0214 0.34732 0.1779 0.32035 0.38145 2.3027 0.71457 1.0516-0.0569-0.50881 0.14557 0.60765 0.79759 0.22225 0.95245 0.0332 1.5999 0.0313 1.9523-0.51745 0.58709-0.13129 1.4168-0.21562 0.4714 0.25754-0.52114 0.86746-2.9704 0.10539-2.9189 0.69488 1.8748 0.0956 3.7771 0.13126 5.6475-0.0267zm-1.651-0.28141c0.42602-0.54394 0.088 0.49713 0 0zm-0.15081-0.72176c0.78112-0.12746-0.23605 0.24563 0 0zm1.4208-0.54824c0.34197-0.51188 0.29929 0.49447 0 0zm0.68217-1.402c-0.14872-0.50123-1.2552-1.2614-0.46353-1.6688 0.85213-1.0788 2.3655-1.1026 3.5901-0.78247 0.77178 0.41537 0.16284 1.5022 1.4549 0.97874 0.76746 0.10771 1.6486 0.14065 1.5801-0.49947 1.148 1.4278-1.301 1.4818-1.7618 1.5641-0.65413-0.69729-1.382 1.0539-2.3288 0.39578-0.68898 6e-3 -1.3841 0.0871-2.071 0.0121zm2.4786-0.43211c1.7591 0.0356 0.51029-2.7247-0.66623-1.7646-1.1274-0.59796-3.1296 0.96364-1.3885 1.7433 0.66987 0.25148 1.3707 0.0135 2.0547 0.0213zm-1.7554-0.50544c-0.0843-0.62057 0.657 0.55657 0 0zm1.4846-0.39099c0.1123-1.1901 0.27467 1.1571 0 0zm4.0636 0.34925c-0.59087-0.21722-2.5549-0.33807-2.6046 0.14009 0.84939 0.10128 1.7826 0.10153 2.6046-0.14009zm2.3848 0.38279c-0.0637-0.6446-0.68204 0.65782-0.56628-0.38246-0.19632-0.80606 0.35845-1.6376 0.35709-0.36012 0.19211 0.56417 0.32797-1.7243 0.39129-0.21392-0.0275 0.14156 0.0927 2.0566-0.1821 0.9565zm-14.926-0.10454c0.30153-0.45327 0.0941 0.57581 0 0zm15.486-0.0878c-0.27988-0.59276 0.18857-2.14 0.3874-0.78266 0.0383 0.24481 4e-3 1.6721-0.3874 0.78266zm-15.486-0.95746c0.11372-0.34504 0.63857 0.45972 0.056 0.13057zm5.6692-1.7659c-0.32263-0.68379 0.84695 3e-3 0 0zm0.5138-0.7219c0.36732-1.2817 0.81107 0.49274 0 0zm-6.1813-0.45998c-0.22434-0.7431 0.6692-0.32567 1.0903-0.39868 0.71383 0.0935 2.4019-0.21578 2.0728 0.76314-0.8341-0.4691-2.9287 0.1825-3.1631-0.36446zm2.2077-0.10583c-0.17578-0.40364-0.34395 0.33636 0 0zm1.9578 0.40008c0.78111-0.12746-0.23603 0.24563 0 0zm-8.4442-0.63161c0.69825-0.38532 0.78027 0.26073 0 0zm2.1497-4e-3c1.0248-0.0903 0.12827 0.19338 0 0zm17.721 7.6874c0.92726-0.13488 0.97613-1.509-0.0326-0.65719-0.72123 0.28463-2.2544 1.4635-0.52503 0.8746l0.27297-0.0991zm-26.301 0.0472c0.82608-0.2653 0.89082-2.1958 0.0398-1.1065 0.0399 0.61848-2.2063 0.55955-1.1936 0.14134-0.77895-0.96878 0.35313-0.57554 0.72253-0.93802-1.0142-0.38811-1.9933-1.0832-3.0898-0.60879-0.76033-1.0473 1.1015-0.60112 1.7345-0.69006 0.60159 0.0769 0.43734-1.7731-0.42322-1.2847-0.60837 0.24518-2.39-0.19912-1.087-0.61466 1.5678 0.35426 2.541-1.0462 4.1115-0.64165 1.5265-0.24796-0.46423-1.7849-1.1131-1.9674-1.5165-0.0632-3.0864-0.26299-4.4902 0.0971-1.4206 0.0429-2.4622 0.95931-3.6339 1.4374-0.84415-0.51639-1.991 0.87277-2.803 1.5176-1.4079 0.73108-0.27381 1.6172 0.75772 2.3532 0.70952 0.5578 1.6501 1.1981 2.4744 0.97118-0.59226 0.82486 1.7944 0.90923 2.3929 1.2493 1.842 0.23376 3.7509 0.20937 5.6005 0.0848zm-6.5828-1.2011c-1.2544-1.028 1.4838-1.3725 0.89808-0.0697-0.43274 0.16354-0.76673 1.017-0.89808 0.0697zm0.78017-0.41341c-0.64131-0.76784-0.63525 0.74589 0 0zm-1.8018-0.0233c0.78112-0.12746-0.23605 0.24563 0 0zm-0.30813-1.0109c-0.57239-0.22924-1.117-0.94974-2.0556-0.94765 0.56803-0.11298 2.3661-0.31316 0.77026-0.4699-0.86299 0.0354-1.0712-0.40158-0.0207-0.28351 1.2044-8e-3 1.8608-1.2048 3.1307-0.75686 0.8536-0.15691 1.3712 0.70918 0.23539 0.31131-1.3304-0.56111-2.4651 1.0535-1.2814 1.8984 0.50151-0.10575 1.8706 0.43356 1.8162-0.40145 0.0801-0.93477 0.59538-1.2076 0.39197-0.0803-0.21642 1.3269-2.0654 0.82-2.9868 0.73zm-0.0491-0.87829c-0.30153-0.45327-0.0941 0.57581 0 0zm-2.794 0.22194c-0.96729-0.83591 0.87642-1.8727 1.397-2.5639 1.4939-0.61699-0.80955 0.78428-1.0356 1.3335-0.66271 0.25075-0.0275 1.5701-0.36134 1.2304zm3.81-0.78594c0.43612-0.54479 0.0784 0.49942 0 0zm0.40942-1.3664c-0.31509-0.68579-0.90608-0.74023 0.0537-1.0641 1.3346-0.79595 1.2322 1.1224-0.0537 1.0641zm0.73358-0.72914c-0.74197-0.74954-0.73629 0.73761 0 0zm4.0824-0.0282c1.0459-7e-3 -0.18697-1.3365 1.0403-0.91232 1.6947 0.52634-0.4267 1.3464-1.0403 0.91232zm1.3786-0.42988c-0.76723-0.51395-0.51832 0.69232 0 0zm-3.6195 0.25719c-0.80405-0.0602-0.82339-0.091-5e-3 -0.0903 0.50775-0.0776 1.8513 0.0694 0.60873 0.12885l-0.29004-0.0135-0.31341-0.025zm1.3097-0.71135c0.78112-0.12746-0.23605 0.24563 0 0zm8.9309 6.7244c-0.37921-0.32269-1.8563 2e-3 -0.57547 0.17687 0.20527 0.0263 0.41885-0.0432 0.57547-0.17687zm18.222-0.45814c1.1478-1.517-2.299 0.14642-0.55949 0.2861 0.20841-0.0416 0.39921-0.14906 0.55949-0.2861zm-33.807-0.16061c0.33519-0.3805-1.1626-0.99616-1.53-1.1382-0.0972 0.54956 1.0296 1.2781 1.53 1.1382zm15.534-0.0667c0.54999 0.0293 1.0876 0.0322 1.36-0.52934 0.38381-0.29681 0.59073-1.0037 1.113-0.97958 0.97046 0.28727 1.7699-0.39983 0.80853-1.1468 0.28205-0.38207 0.91367-1.7403-0.0691-1.5185-1.6393 0.11326-2.0843-2.248-3.9115-1.5792-1.2703 0.14155-3.5944-0.56999-3.7662 1.2646-0.326 1.168-0.24447 2.7406 0.15332 3.6019 0.43556 1.8461 2.9601 0.58446 4.3119 0.88684zm-2.804-0.48712c-1.2236-0.92719-0.76294-2.8693-0.48258-4.1426 0.27843-0.6625 1.9669-0.97388 0.68484-0.24439-1.0539 0.91379-0.76113 2.7359-0.20208 3.8467 0.73289 0.23879 1.1653 1.203-1.8e-4 0.54022zm3.0921 0.13882c-1.6726 0.26397-2.4911-1.5307-2.0572-2.9712 0.0231-0.43422 0.49137-2.1002 0.40325-0.83774 0.15343 1.1006-0.30874 2.3733 0.37743 3.3266 1.9951 0.99875 0.74155-1.956 1.2252-2.8967 0.73419-0.70896-0.42479-1.6405-1.2649-1.4159 1.2601-0.38592 2.1876 0.84804 1.825 2.1231-0.0664 0.75664 0.18226 2.5584-0.50867 2.6717zm-0.127-3.7699c0.30153-0.45326 0.0941 0.5758 0 0zm-0.35717-0.31794c0.52763-0.73687 0.27525 0.41453 0 0zm-6.3738 4.3969c-0.28138-0.44723-0.32106 0.23578 0 0zm9.3052-0.5353c-0.71619-0.124-0.25491 0.2027 0 0zm-20.132-0.73501c-0.0767-0.64695-2.1315-2.0329-1.2454-0.69516 0.21607 0.0904 1.6453 1.6487 1.2454 0.69516zm10.7-7e-3c0.78014-0.18321 1.2604-0.61883 0.77668-1.5003 0.66946-0.58443 0.76845-1.7067-0.46496-1.301-0.86547 0.66593-0.29412 2.2768-0.87511 2.9348 0.15445 0.075 0.53848 0.11625 0.56339-0.1334zm-0.4918-1.1748c0.39063-0.58254-0.77289 0.7364 0 0zm10.906-0.15875c-0.34196-0.51183-0.29933 0.49448 0 0zm-8.9482-0.26245c0.15981-0.52887-0.5539 0.46735 0 0zm-12.783-0.65833c0.54337-1.2329 2.3041-1.2927 2.8573-2.3407-1.4643 0.24415-2.6284 1.5633-3.6785 2.5619-0.63618 0.97792 0.7227 0.033 0.82121-0.22121zm11.063-0.58844c1.23-0.37352-0.35359-0.59903-0.32505 0.0795 0.0998 0.0495 0.2862 0.0578 0.32505-0.0795zm25.484-1.2278c0.0418-1.2856-2.2729-0.64292-0.70298 0.0501 0.22229 0.0345 0.60281 0.30144 0.70298-0.0501zm-32.157-0.94603c0.71678-1.1085-2.5144 0.76669-0.69821 0.24228 0.22359-0.10372 0.45217-0.20475 0.69821-0.24228zm34.487 0.25001c-0.26259-0.93735-3.5828-0.89638-1.397-0.24999 0.39794-0.026 1.245 0.88405 1.397 0.24999z" stroke-width=".127"/>
</g>
</svg>
