<?xml version="1.0" encoding="UTF-8"?>
<svg width="50mm" height="50mm" enable-background="new 0 0 512 512" version="1.1" viewBox="0 0 512 512" xml:space="preserve" xmlns="http://www.w3.org/2000/svg">
<path d="m260.75 508.16c-7.119 2.472-14.877 3.836-23.125 3.836-3.602 0-7.119-0.256-10.518-0.757-48.158-7.066-75.173-61.948-49.458-104.88l48.606-94.974c0.266-0.501 0.544-0.98 0.853-1.428 5.318-7.811 17.403-7.332 21.889 1.428l11.765 22.987 36.841 71.987c23.347 38.995 3.195 87.921-36.853 101.81z" fill="#07A9F0"/>
<path d="m260.75 508.16c-40.027-13.897-60.211-62.78-36.83-101.8l36.841-71.987 36.841 71.987c23.348 38.994 3.196 87.92-36.852 101.8z" fill="#40C1FA"/>
<path d="m213.56 261.03-157.26-99.418c-56.982-35.21-70.857-105.48-18.33-144.78 0.139-0.107 0.277-0.202 0.416-0.298 55.352-40.933 132.58-0.703 133.28 64.367 0.16 14.845 2.067 57.377 17.36 106.04 6.991 22.198 16.753 45.665 30.415 68.364 2.29 3.804-2.111 8.109-5.873 5.733z" fill="#07A9F0"/>
<path d="m189.02 186.93-103.06-65.156c-40.784-25.193-59.487-68.343-47.572-105.25 55.352-40.933 132.58-0.703 133.28 64.367 0.159 14.845 2.067 57.377 17.359 106.04z" fill="#40C1FA"/>
<path d="m456.94 133.86s-36.574 11.392-96.764 54.435c-24.021 17.179-51.792 39.398-82.505 67.948-2.963 2.76-7.513-0.725-5.627-4.305l103.26-195.39c27.548-48.435 75.227-71.071 113.87-36.361 10.945 9.826 17.925 21.74 20.919 34.187 7.503 31.193-10.059 65.774-53.156 79.49z" fill="#07A9F0"/>
<g fill="#40C1FA">
	<path d="m456.94 133.86s-36.574 11.392-96.764 54.435l47.178-89.262c24.958-43.874 66.424-66.584 102.74-44.663 7.502 31.193-10.06 65.774-53.157 79.49z"/>
	<path d="m204.18 293.92-55.906 55.224c-26.141 29.509-75.376 19.683-87.503-18.66-0.799-2.536-1.396-5.062-1.801-7.566-1.513-9.314-0.362-18.34 2.803-26.429 8.835-22.614 33.452-37.864 59.87-31.587l63.739 10.742 13.747 2.313c0.416 0.064 0.81 0.16 1.204 0.277 6.661 2.003 9.005 10.592 3.847 15.686z"/>
</g>
<path d="m185.39 275.64-37.107 36.649c-25.481 28.773-72.893 20.152-86.502-15.804 8.835-22.614 33.452-37.864 59.87-31.587l63.739 10.742z" fill="#93DCFC"/>
<g fill="#0691CE">
	<path d="m277.07 173.68-22.631 44.265c-0.12 0.237-0.253 0.459-0.398 0.67-2.475 3.639-8.107 3.418-10.199-0.665l-22.672-44.245c-12.829-21.396 2.478-49.23 27.926-49.242 1.681-1e-3 3.317 0.119 4.904 0.353 22.444 3.282 35.044 28.851 23.07 48.864z"/>
	<path d="m479.45 226.69-34.93-7.783c-0.186-0.042-0.366-0.094-0.538-0.157-2.983-1.068-3.844-5.032-1.377-7.227l26.74-23.783c12.594-12.8 34.753-7.157 39.354 10.575 0.304 1.171 0.516 2.334 0.639 3.482 1.762 16.231-13.782 29.626-29.888 24.893z"/>
	<path d="m85.943 450.67 31.109-17.688c0.166-0.095 0.334-0.177 0.504-0.246 2.927-1.212 6.228 1.148 5.873 4.431l-3.846 35.579c-0.737 17.942-20.947 28.639-36.262 18.589-1.011-0.664-1.949-1.383-2.811-2.151-12.205-10.842-9.68-31.206 5.433-38.514z"/>
	<path d="m41.817 200.78 24.404 26.174c0.131 0.14 0.249 0.283 0.356 0.434 1.855 2.568 0.324 6.324-2.952 6.738l-35.503 4.489c-17.626 3.433-32.708-13.755-26.473-30.979 0.411-1.137 0.894-2.217 1.442-3.232 7.727-14.383 28.121-16.636 38.726-3.624z"/>
</g>
<path d="m466.54 382.19c-1.694 3.186-3.57 6.17-5.606 8.941-1.929 2.622-4.007 5.062-6.213 7.321-30.638 31.459-85.479 27.154-109.62-12.82l-61.085-87.471c-0.33-0.469-0.618-0.938-0.874-1.428-4.401-8.355 1.694-18.799 11.531-18.66l23.616 0.352 83.06 1.247c53.464-2.751 90.795 54.285 65.187 102.52z" fill="#40C1FA"/>
<path d="m466.54 382.19c-1.694 3.186-3.57 6.17-5.606 8.941-1.929 2.622-4.007 5.062-6.213 7.321-27.644 6.021-58.453-4.646-74.939-31.949l-61.085-87.471c-0.139-0.202-0.277-0.405-0.405-0.607l83.06 1.247c53.465-2.751 90.796 54.285 65.188 102.52z" fill="#93DCFC"/>
</svg>
