<?xml version="1.0" encoding="UTF-8" standalone="no"?>
<svg viewBox="0 0 900 830" xmlns="http://www.w3.org/2000/svg">
<defs>
<filter id="filter7822-1">
<feGaussianBlur stdDeviation="4.02484"/>
</filter>
<radialGradient cx="680.13922" cy="815.23541" gradientTransform="matrix(1.21338,-3.4589524e-7,3.8323164e-7,1.34436,-145.12998,-280.73133)" gradientUnits="userSpaceOnUse" id="radialGradient3945" r="198.82812">
<stop offset="0" stop-color="#fc0"/>
<stop offset="1" stop-color="#e40039" stop-opacity=".96471"/>
</radialGradient>
<radialGradient cx="680.13922" cy="815.23541" gradientTransform="matrix(1.49474,.01418,-.00972,1.02424,-328.71668,-29.5429)" gradientUnits="userSpaceOnUse" id="radialGradient3947" r="136.69724">
<stop offset="0" stop-color="#ffd600"/>
<stop offset="1" stop-color="#fc0" stop-opacity="0"/>
</radialGradient>
</defs>
<title>Pow</title>
<g transform="matrix(1.4258,.75913,-.80093,1.39715,77.18401,-1238.89065)">
<path d="m753.78042,611.57918c0,0-38.6354,81.371-72.125,90.5312-15.4405,4.2234-41.5085-6.9372-61.4688-17.5624-20.6703-18.1624-36.9687-35.5626-36.9687-35.5626s44.1768,91.1085 32.8437,118.3126c-.0476.1143-.1057.2297-.1562.3437-30.4961,14.1732-99.7188,13.6563-99.7188,13.6563s21.5403,7.26655 43.3438,17.40625c-34.8469,10.1971-72.5625,15.4688-72.5625,15.4688s97.3648,14.8688 110.0312,37.4374c1.3333,2.3756 2.4604,5.0213 3.375,7.875-13.9022,38.0545-54.5,90.0938-54.5,90.0938s27.3292-18.9861 56.0313-33.9062c-4.1834,32.1124-13.375,62.0312-13.375,62.0312s55.3199-57.1534 86.25-56.5312c2.4844.0499 5.1023.4703 7.8125,1.1562 22.7783,35.1915 41.5,96.56247 41.5,96.56247s-.2061-36.78577 4.2812-69.06247c21.4861,17.8885 39.0313,37.5312 39.0313,37.5312s-23.4968-56.3089-17.9063-86.6874c22.6181-12.459 64.7699-12.1801 92.6875-10.3126 23.6197,7.864 42.4375,16.7188 42.4375,16.7188s-8.3948-5.7735-19.625-14.6562c2.9774.3541 4.75.5937 4.75.5937s-26.2882-18.4539-46.5312-39.7813c-9.0061-10.7971-15.6755-21.7943-16.75-31.5-3.1472-28.4286 47.4375-82.71875 47.4375-82.71875s-13.5895,8.7993-31.1875,16.3437c13.7257-22.289 28.625-40.5312 28.625-40.5312s-73.4096,45.276-97.5625,26.875c-1.3094-.9976-2.4982-2.1595-3.5938-3.4375-5.7022-34.4136 3.9063-92.3437 3.9063-92.3437s-4.7423,9.0481-11.8438,20.9374c3.919-29.203 11.5313-55.2812 11.5313-55.2812z" fill-rule="evenodd" filter="url(#filter7822-1)" opacity=".68269" transform="matrix(1.1219,0,0,1.1219,-83.5971,-99.37549)"/>
<path d="m748.12358,611.57918c-2e-005,0-38.63542,81.371-72.125,90.5312-15.44046,4.2234-41.50854-6.9372-61.46875-17.5624-20.67037-18.1624-36.96875-35.5626-36.96875-35.5626s44.17684,91.1085 32.84375,118.3126c-.0476.1143-.10572.2297-.15625.3437-30.49606,14.1732-99.71875,13.6563-99.71875,13.6563s21.54028,7.2665 43.34375,17.4062c-34.84687,10.1971-72.5625,15.4688-72.5625,15.4688s97.3648,14.8688 110.03125,37.4374c1.33324,2.3756 2.46036,5.0213 3.375,7.875-13.90223,38.0545-54.5,90.0938-54.5,90.0938s27.32912-18.9861 56.03125-33.9062c-4.18335,32.1124-13.375,62.0312-13.375,62.0312s55.31988-57.1534 86.25-56.5312c2.48439.0499 5.10234.4703 7.8125,1.1562 22.77831,35.1915 41.5,96.56252 41.5,96.56252s-.20608-36.78582 4.28125-69.06252c21.48608,17.8885 39.03125,37.5312 39.03125,37.5312s-23.49679-56.3089-17.90625-86.6874c22.61811-12.459 64.76982-12.1801 92.6875-10.3126 23.6197,7.864 42.4375,16.7188 42.4375,16.7188s-8.39481-5.7735-19.625-14.6562c2.97733.3541 4.75.5937 4.75.5937s-26.28821-18.4539-46.53125-39.7813c-9.00608-10.7971-15.67551-21.7943-16.75-31.5-3.14723-28.4286 47.4375-82.7187 47.4375-82.7187s-13.58954,8.7993-31.1875,16.3437c13.72569-22.289 28.625-40.5312 28.625-40.5312s-73.40961,45.276-97.5625,26.875c-1.30944-.9976-2.49822-2.1595-3.59375-3.4375-5.70224-34.4136 3.90625-92.3437 3.90625-92.3437s-4.74228,9.0481-11.84375,20.9374c3.91894-29.203 11.53125-55.2812 11.53125-55.2812z" fill="url(#radialGradient3945)" fill-rule="evenodd"/>
<path d="m734.09768,677.75816c-1e-005,0-29.49357,54.45542-52.8199,59.52256-10.75466,2.33626-28.24443-6.27703-41.56041-14.2999-13.52856-13.22342-24.08334-25.76406-24.08334-25.76406s27.0056,64.16185 18.23245,82.42526c-.0369.0767-.081.15384-.1198.23026-21.45402,8.61799-68.95971,5.73773-68.95971,5.73773s14.52329,5.77463 29.12246,13.53144c-24.296,5.72948-50.38184,7.9728-50.38184,7.9728s66.30298,13.76018 74.17574,29.71665c.82865,1.67961 1.50595,3.53712 2.02979,5.52969-10.93284,25.61897-40.70357,59.86527-40.70357,59.86527s19.45535-12.03782 39.705-21.23405c-4.04359,21.89404-11.44557,42.09934-11.44557,42.09934s40.06471-37.22027 61.27696-35.66471c1.70383.12491 3.48584.50903 5.32146,1.07881 14.35451,24.99159 24.96887,67.80861 24.96887,67.80861s1.20053-25.26268 5.45881-47.2584c14.09858,13.06513 25.42753,27.19083 25.42753,27.19083s-14.07737-39.51586-9.13093-60.16814c15.9829-7.72852 44.91181-5.99926 64.01045-3.69866 15.92911,6.26071 28.52536,13.02643 28.52536,13.02643s-5.5528-4.27001-12.93877-10.77811c2.03115.35174 3.23942.5809 3.23942.5809s-17.37483-13.6285-30.49454-29.00925c-5.78918-7.74126-9.96685-15.53467-10.35045-22.23727-1.12359-19.63235 35.58576-55.05958 35.58576-55.05958s-9.65085,5.54536-22.00791,10.08292c10.23647-14.80168 21.13105-26.78223 21.13105-26.78223s-52.05083,28.40592-67.9616,14.89165c-.86259-.73267-1.63636-1.57374-2.34186-2.49112-2.65938-23.83455 6.0507-63.25569 6.0507-63.25569s-3.58588,6.03894-8.89511,13.94241c3.75591-19.90624 9.9335-37.53239 9.9335-37.53239z" fill="url(#radialGradient3947)" fill-rule="evenodd" opacity=".61058"/>
</g>
<g transform="matrix(.03599,-1.57044,-1.65484,-.03415,1786.53471,1516.60148)">
<path d="m753.78042,611.57918c0,0-38.6354,81.371-72.125,90.5312-15.4405,4.2234-41.5085-6.9372-61.4688-17.5624-20.6703-18.1624-36.9687-35.5626-36.9687-35.5626s44.1768,91.1085 32.8437,118.3126c-.0476.1143-.1057.2297-.1562.3437-30.4961,14.1732-99.7188,13.6563-99.7188,13.6563s21.5403,7.26655 43.3438,17.40625c-34.8469,10.1971-72.5625,15.4688-72.5625,15.4688s97.3648,14.8688 110.0312,37.4374c1.3333,2.3756 2.4604,5.0213 3.375,7.875-13.9022,38.0545-54.5,90.0938-54.5,90.0938s27.3292-18.9861 56.0313-33.9062c-4.1834,32.1124-13.375,62.0312-13.375,62.0312s55.3199-57.1534 86.25-56.5312c2.4844.0499 5.1023.4703 7.8125,1.1562 22.7783,35.1915 41.5,96.56247 41.5,96.56247s-.2061-36.78577 4.2812-69.06247c21.4861,17.8885 39.0313,37.5312 39.0313,37.5312s-23.4968-56.3089-17.9063-86.6874c22.6181-12.459 64.7699-12.1801 92.6875-10.3126 23.6197,7.864 42.4375,16.7188 42.4375,16.7188s-8.3948-5.7735-19.625-14.6562c2.9774.3541 4.75.5937 4.75.5937s-26.2882-18.4539-46.5312-39.7813c-9.0061-10.7971-15.6755-21.7943-16.75-31.5-3.1472-28.4286 47.4375-82.71875 47.4375-82.71875s-13.5895,8.7993-31.1875,16.3437c13.7257-22.289 28.625-40.5312 28.625-40.5312s-73.4096,45.276-97.5625,26.875c-1.3094-.9976-2.4982-2.1595-3.5938-3.4375-5.7022-34.4136 3.9063-92.3437 3.9063-92.3437s-4.7423,9.0481-11.8438,20.9374c3.919-29.203 11.5313-55.2812 11.5313-55.2812z" fill-rule="evenodd" filter="url(#filter7822-1)" opacity=".68269" transform="matrix(1.1219,0,0,1.1219,-83.5971,-99.37549)"/>
<path d="m748.12358,611.57918c-2e-005,0-38.63542,81.371-72.125,90.5312-15.44046,4.2234-41.50854-6.9372-61.46875-17.5624-20.67037-18.1624-36.96875-35.5626-36.96875-35.5626s44.17684,91.1085 32.84375,118.3126c-.0476.1143-.10572.2297-.15625.3437-30.49606,14.1732-99.71875,13.6563-99.71875,13.6563s21.54028,7.2665 43.34375,17.4062c-34.84687,10.1971-72.5625,15.4688-72.5625,15.4688s97.3648,14.8688 110.03125,37.4374c1.33324,2.3756 2.46036,5.0213 3.375,7.875-13.90223,38.0545-54.5,90.0938-54.5,90.0938s27.32912-18.9861 56.03125-33.9062c-4.18335,32.1124-13.375,62.0312-13.375,62.0312s55.31988-57.1534 86.25-56.5312c2.48439.0499 5.10234.4703 7.8125,1.1562 22.77831,35.1915 41.5,96.56252 41.5,96.56252s-.20608-36.78582 4.28125-69.06252c21.48608,17.8885 39.03125,37.5312 39.03125,37.5312s-23.49679-56.3089-17.90625-86.6874c22.61811-12.459 64.76982-12.1801 92.6875-10.3126 23.6197,7.864 42.4375,16.7188 42.4375,16.7188s-8.39481-5.7735-19.625-14.6562c2.97733.3541 4.75.5937 4.75.5937s-26.28821-18.4539-46.53125-39.7813c-9.00608-10.7971-15.67551-21.7943-16.75-31.5-3.14723-28.4286 47.4375-82.7187 47.4375-82.7187s-13.58954,8.7993-31.1875,16.3437c13.72569-22.289 28.625-40.5312 28.625-40.5312s-73.40961,45.276-97.5625,26.875c-1.30944-.9976-2.49822-2.1595-3.59375-3.4375-5.70224-34.4136 3.90625-92.3437 3.90625-92.3437s-4.74228,9.0481-11.84375,20.9374c3.91894-29.203 11.53125-55.2812 11.53125-55.2812z" fill="url(#radialGradient3945)" fill-rule="evenodd"/>
<path d="m734.09768,677.75816c-1e-005,0-29.49357,54.45542-52.8199,59.52256-10.75466,2.33626-28.24443-6.27703-41.56041-14.2999-13.52856-13.22342-24.08334-25.76406-24.08334-25.76406s27.0056,64.16185 18.23245,82.42526c-.0369.0767-.081.15384-.1198.23026-21.45402,8.61799-68.95971,5.73773-68.95971,5.73773s14.52329,5.77463 29.12246,13.53144c-24.296,5.72948-50.38184,7.9728-50.38184,7.9728s66.30298,13.76018 74.17574,29.71665c.82865,1.67961 1.50595,3.53712 2.02979,5.52969-10.93284,25.61897-40.70357,59.86527-40.70357,59.86527s19.45535-12.03782 39.705-21.23405c-4.04359,21.89404-11.44557,42.09934-11.44557,42.09934s40.06471-37.22027 61.27696-35.66471c1.70383.12491 3.48584.50903 5.32146,1.07881 14.35451,24.99159 24.96887,67.80861 24.96887,67.80861s1.20053-25.26268 5.45881-47.2584c14.09858,13.06513 25.42753,27.19083 25.42753,27.19083s-14.07737-39.51586-9.13093-60.16814c15.9829-7.72852 44.91181-5.99926 64.01045-3.69866 15.92911,6.26071 28.52536,13.02643 28.52536,13.02643s-5.5528-4.27001-12.93877-10.77811c2.03115.35174 3.23942.5809 3.23942.5809s-17.37483-13.6285-30.49454-29.00925c-5.78918-7.74126-9.96685-15.53467-10.35045-22.23727-1.12359-19.63235 35.58576-55.05958 35.58576-55.05958s-9.65085,5.54536-22.00791,10.08292c10.23647-14.80168 21.13105-26.78223 21.13105-26.78223s-52.05083,28.40592-67.9616,14.89165c-.86259-.73267-1.63636-1.57374-2.34186-2.49112-2.65938-23.83455 6.0507-63.25569 6.0507-63.25569s-3.58588,6.03894-8.89511,13.94241c3.75591-19.90624 9.9335-37.53239 9.9335-37.53239z" fill="url(#radialGradient3947)" fill-rule="evenodd" opacity=".61058"/>
</g>
</svg>
