<?xml version="1.0" encoding="UTF-8"?>
<svg viewBox="0 0 900 830" xmlns="http://www.w3.org/2000/svg">
<defs>
<filter id="c">
<feGaussianBlur stdDeviation="4.02484"/>
</filter>
<radialGradient id="b" cx="680.14" cy="815.24" r="198.83" gradientTransform="matrix(1.2134 -3.459e-7 3.8323e-7 1.3444 -145.13 -280.73)" gradientUnits="userSpaceOnUse">
<stop stop-color="#fc0" offset="0"/>
<stop stop-color="#e40039" stop-opacity=".96471" offset="1"/>
</radialGradient>
<radialGradient id="a" cx="680.14" cy="815.24" r="136.7" gradientTransform="matrix(1.4947 .01418 -.00972 1.0242 -328.72 -29.543)" gradientUnits="userSpaceOnUse">
<stop stop-color="#ffd600" offset="0"/>
<stop stop-color="#fc0" stop-opacity="0" offset="1"/>
</radialGradient>
</defs>
<title>Pow</title>
<g transform="matrix(1.4258 .75913 -.80093 1.3972 77.184 -1238.9)" fill-rule="evenodd">
<path transform="matrix(1.1219 0 0 1.1219 -83.597 -99.375)" d="m753.78 611.58s-38.635 81.371-72.125 90.531c-15.44 4.2234-41.508-6.9372-61.469-17.562-20.67-18.162-36.969-35.563-36.969-35.563s44.177 91.108 32.844 118.31c-0.0476 0.1143-0.1057 0.2297-0.1562 0.3437-30.496 14.173-99.719 13.656-99.719 13.656s21.54 7.2666 43.344 17.406c-34.847 10.197-72.562 15.469-72.562 15.469s97.365 14.869 110.03 37.437c1.3333 2.3756 2.4604 5.0213 3.375 7.875-13.902 38.054-54.5 90.094-54.5 90.094s27.329-18.986 56.031-33.906c-4.1834 32.112-13.375 62.031-13.375 62.031s55.32-57.153 86.25-56.531c2.4844 0.0499 5.1023 0.4703 7.8125 1.1562 22.778 35.192 41.5 96.562 41.5 96.562s-0.2061-36.786 4.2812-69.062c21.486 17.888 39.031 37.531 39.031 37.531s-23.497-56.309-17.906-86.687c22.618-12.459 64.77-12.18 92.688-10.313 23.62 7.864 42.438 16.719 42.438 16.719s-8.3948-5.7735-19.625-14.656c2.9774 0.3541 4.75 0.5937 4.75 0.5937s-26.288-18.454-46.531-39.781c-9.0061-10.797-15.676-21.794-16.75-31.5-3.1472-28.429 47.438-82.719 47.438-82.719s-13.59 8.7993-31.188 16.344c13.726-22.289 28.625-40.531 28.625-40.531s-73.41 45.276-97.562 26.875c-1.3094-0.9976-2.4982-2.1595-3.5938-3.4375-5.7022-34.414 3.9063-92.344 3.9063-92.344s-4.7423 9.0481-11.844 20.937c3.919-29.203 11.531-55.281 11.531-55.281z" filter="url(#c)" opacity=".68269"/>
<path d="m748.12 611.58c-2e-5 0-38.635 81.371-72.125 90.531-15.44 4.2234-41.509-6.9372-61.469-17.562-20.67-18.162-36.969-35.563-36.969-35.563s44.177 91.108 32.844 118.31c-0.0476 0.1143-0.10572 0.2297-0.15625 0.3437-30.496 14.173-99.719 13.656-99.719 13.656s21.54 7.2665 43.344 17.406c-34.847 10.197-72.562 15.469-72.562 15.469s97.365 14.869 110.03 37.437c1.3332 2.3756 2.4604 5.0213 3.375 7.875-13.902 38.054-54.5 90.094-54.5 90.094s27.329-18.986 56.031-33.906c-4.1834 32.112-13.375 62.031-13.375 62.031s55.32-57.153 86.25-56.531c2.4844 0.0499 5.1023 0.4703 7.8125 1.1562 22.778 35.192 41.5 96.563 41.5 96.563s-0.20608-36.786 4.2812-69.063c21.486 17.888 39.031 37.531 39.031 37.531s-23.497-56.309-17.906-86.687c22.618-12.459 64.77-12.18 92.688-10.313 23.62 7.864 42.438 16.719 42.438 16.719s-8.3948-5.7735-19.625-14.656c2.9773 0.3541 4.75 0.5937 4.75 0.5937s-26.288-18.454-46.531-39.781c-9.0061-10.797-15.676-21.794-16.75-31.5-3.1472-28.429 47.438-82.719 47.438-82.719s-13.59 8.7993-31.188 16.344c13.726-22.289 28.625-40.531 28.625-40.531s-73.41 45.276-97.562 26.875c-1.3094-0.9976-2.4982-2.1595-3.5938-3.4375-5.7022-34.414 3.9062-92.344 3.9062-92.344s-4.7423 9.0481-11.844 20.937c3.9189-29.203 11.531-55.281 11.531-55.281z" fill="url(#b)"/>
<path d="m734.1 677.76c-1e-5 0-29.494 54.455-52.82 59.523-10.755 2.3363-28.244-6.277-41.56-14.3-13.529-13.223-24.083-25.764-24.083-25.764s27.006 64.162 18.232 82.425c-0.0369 0.0767-0.081 0.15384-0.1198 0.23026-21.454 8.618-68.96 5.7377-68.96 5.7377s14.523 5.7746 29.122 13.531c-24.296 5.7295-50.382 7.9728-50.382 7.9728s66.303 13.76 74.176 29.717c0.82865 1.6796 1.506 3.5371 2.0298 5.5297-10.933 25.619-40.704 59.865-40.704 59.865s19.455-12.038 39.705-21.234c-4.0436 21.894-11.446 42.099-11.446 42.099s40.065-37.22 61.277-35.665c1.7038 0.12491 3.4858 0.50903 5.3215 1.0788 14.355 24.992 24.969 67.809 24.969 67.809s1.2005-25.263 5.4588-47.258c14.099 13.065 25.428 27.191 25.428 27.191s-14.077-39.516-9.1309-60.168c15.983-7.7285 44.912-5.9993 64.01-3.6987 15.929 6.2607 28.525 13.026 28.525 13.026s-5.5528-4.27-12.939-10.778c2.0312 0.35174 3.2394 0.5809 3.2394 0.5809s-17.375-13.628-30.495-29.009c-5.7892-7.7413-9.9668-15.535-10.35-22.237-1.1236-19.632 35.586-55.06 35.586-55.06s-9.6508 5.5454-22.008 10.083c10.236-14.802 21.131-26.782 21.131-26.782s-52.051 28.406-67.962 14.892c-0.86259-0.73267-1.6364-1.5737-2.3419-2.4911-2.6594-23.835 6.0507-63.256 6.0507-63.256s-3.5859 6.0389-8.8951 13.942c3.7559-19.906 9.9335-37.532 9.9335-37.532z" fill="url(#a)" opacity=".61058"/>
</g>
<g transform="matrix(.03599 -1.5704 -1.6548 -.03415 1786.5 1516.6)" fill-rule="evenodd">
<path transform="matrix(1.1219 0 0 1.1219 -83.597 -99.375)" d="m753.78 611.58s-38.635 81.371-72.125 90.531c-15.44 4.2234-41.508-6.9372-61.469-17.562-20.67-18.162-36.969-35.563-36.969-35.563s44.177 91.108 32.844 118.31c-0.0476 0.1143-0.1057 0.2297-0.1562 0.3437-30.496 14.173-99.719 13.656-99.719 13.656s21.54 7.2666 43.344 17.406c-34.847 10.197-72.562 15.469-72.562 15.469s97.365 14.869 110.03 37.437c1.3333 2.3756 2.4604 5.0213 3.375 7.875-13.902 38.054-54.5 90.094-54.5 90.094s27.329-18.986 56.031-33.906c-4.1834 32.112-13.375 62.031-13.375 62.031s55.32-57.153 86.25-56.531c2.4844 0.0499 5.1023 0.4703 7.8125 1.1562 22.778 35.192 41.5 96.562 41.5 96.562s-0.2061-36.786 4.2812-69.062c21.486 17.888 39.031 37.531 39.031 37.531s-23.497-56.309-17.906-86.687c22.618-12.459 64.77-12.18 92.688-10.313 23.62 7.864 42.438 16.719 42.438 16.719s-8.3948-5.7735-19.625-14.656c2.9774 0.3541 4.75 0.5937 4.75 0.5937s-26.288-18.454-46.531-39.781c-9.0061-10.797-15.676-21.794-16.75-31.5-3.1472-28.429 47.438-82.719 47.438-82.719s-13.59 8.7993-31.188 16.344c13.726-22.289 28.625-40.531 28.625-40.531s-73.41 45.276-97.562 26.875c-1.3094-0.9976-2.4982-2.1595-3.5938-3.4375-5.7022-34.414 3.9063-92.344 3.9063-92.344s-4.7423 9.0481-11.844 20.937c3.919-29.203 11.531-55.281 11.531-55.281z" filter="url(#c)" opacity=".68269"/>
<path d="m748.12 611.58c-2e-5 0-38.635 81.371-72.125 90.531-15.44 4.2234-41.509-6.9372-61.469-17.562-20.67-18.162-36.969-35.563-36.969-35.563s44.177 91.108 32.844 118.31c-0.0476 0.1143-0.10572 0.2297-0.15625 0.3437-30.496 14.173-99.719 13.656-99.719 13.656s21.54 7.2665 43.344 17.406c-34.847 10.197-72.562 15.469-72.562 15.469s97.365 14.869 110.03 37.437c1.3332 2.3756 2.4604 5.0213 3.375 7.875-13.902 38.054-54.5 90.094-54.5 90.094s27.329-18.986 56.031-33.906c-4.1834 32.112-13.375 62.031-13.375 62.031s55.32-57.153 86.25-56.531c2.4844 0.0499 5.1023 0.4703 7.8125 1.1562 22.778 35.192 41.5 96.563 41.5 96.563s-0.20608-36.786 4.2812-69.063c21.486 17.888 39.031 37.531 39.031 37.531s-23.497-56.309-17.906-86.687c22.618-12.459 64.77-12.18 92.688-10.313 23.62 7.864 42.438 16.719 42.438 16.719s-8.3948-5.7735-19.625-14.656c2.9773 0.3541 4.75 0.5937 4.75 0.5937s-26.288-18.454-46.531-39.781c-9.0061-10.797-15.676-21.794-16.75-31.5-3.1472-28.429 47.438-82.719 47.438-82.719s-13.59 8.7993-31.188 16.344c13.726-22.289 28.625-40.531 28.625-40.531s-73.41 45.276-97.562 26.875c-1.3094-0.9976-2.4982-2.1595-3.5938-3.4375-5.7022-34.414 3.9062-92.344 3.9062-92.344s-4.7423 9.0481-11.844 20.937c3.9189-29.203 11.531-55.281 11.531-55.281z" fill="url(#b)"/>
<path d="m734.1 677.76c-1e-5 0-29.494 54.455-52.82 59.523-10.755 2.3363-28.244-6.277-41.56-14.3-13.529-13.223-24.083-25.764-24.083-25.764s27.006 64.162 18.232 82.425c-0.0369 0.0767-0.081 0.15384-0.1198 0.23026-21.454 8.618-68.96 5.7377-68.96 5.7377s14.523 5.7746 29.122 13.531c-24.296 5.7295-50.382 7.9728-50.382 7.9728s66.303 13.76 74.176 29.717c0.82865 1.6796 1.506 3.5371 2.0298 5.5297-10.933 25.619-40.704 59.865-40.704 59.865s19.455-12.038 39.705-21.234c-4.0436 21.894-11.446 42.099-11.446 42.099s40.065-37.22 61.277-35.665c1.7038 0.12491 3.4858 0.50903 5.3215 1.0788 14.355 24.992 24.969 67.809 24.969 67.809s1.2005-25.263 5.4588-47.258c14.099 13.065 25.428 27.191 25.428 27.191s-14.077-39.516-9.1309-60.168c15.983-7.7285 44.912-5.9993 64.01-3.6987 15.929 6.2607 28.525 13.026 28.525 13.026s-5.5528-4.27-12.939-10.778c2.0312 0.35174 3.2394 0.5809 3.2394 0.5809s-17.375-13.628-30.495-29.009c-5.7892-7.7413-9.9668-15.535-10.35-22.237-1.1236-19.632 35.586-55.06 35.586-55.06s-9.6508 5.5454-22.008 10.083c10.236-14.802 21.131-26.782 21.131-26.782s-52.051 28.406-67.962 14.892c-0.86259-0.73267-1.6364-1.5737-2.3419-2.4911-2.6594-23.835 6.0507-63.256 6.0507-63.256s-3.5859 6.0389-8.8951 13.942c3.7559-19.906 9.9335-37.532 9.9335-37.532z" fill="url(#a)" opacity=".61058"/>
</g>
</svg>
