<?xml version="1.0" encoding="UTF-8" standalone="no"?>
<svg
   xmlns:dc="http://purl.org/dc/elements/1.1/"
   xmlns:cc="http://creativecommons.org/ns#"
   xmlns:rdf="http://www.w3.org/1999/02/22-rdf-syntax-ns#"
   xmlns:svg="http://www.w3.org/2000/svg"
   xmlns="http://www.w3.org/2000/svg"
   id="svg836"
   version="1.1"
   viewBox="0 0 30.632707 9.7819289"
   height="9.781929mm"
   width="30.632708mm">
  <defs
     id="defs830" />
  <metadata
     id="metadata833">
    <rdf:RDF>
      <cc:Work
         rdf:about="">
        <dc:format>image/svg+xml</dc:format>
        <dc:type
           rdf:resource="http://purl.org/dc/dcmitype/StillImage" />
        <dc:title></dc:title>
      </cc:Work>
    </rdf:RDF>
  </metadata>
  <path
     style="opacity:1;vector-effect:none;fill:#a8b8d5;fill-opacity:1;fill-rule:nonzero;stroke:#000000;stroke-width:0;stroke-linecap:butt;stroke-linejoin:round;stroke-miterlimit:4;stroke-dasharray:none;stroke-dashoffset:0;stroke-opacity:1"
     d="M 5.8203633,0.38805116 28.365466,0.08084636 30.135434,1.1617366 30.187074,8.3072046 28.365462,9.6524578 5.7538878,9.3731665 2.9993665,7.8064724 C 2.5959457,7.6513105 0.28073234,4.8144413 0.28073234,4.8144413 L 1.7517798,2.7943226 Z"
     id="rect814" />
  <g
     transform="translate(272.97,-6.0606465)"
     id="layer1">
    <path
       id="path865-2"
       d="m -267.03362,15.733275 c -1.03986,-0.49677 -2.11048,-0.90225 -3.02984,-1.60996 -1.0409,-0.865499 -2.08586,-1.79867 -2.76389,-2.98445 -0.66167,-0.97864 1.16384,-1.8184687 1.68933,-2.5681687 1.03747,-1.01929 2.29885,-1.77654 3.68623,-2.21279 1.3572,-0.42863 2.8234,-0.20048 4.22699,-0.28439 6.60242,-0.0222 13.2049,-0.008 19.80734,-0.0122 0.34834,0.72259 0.77793,1.42555 1.07712,2.16001 -0.0296,1.9464987 0.0763,3.9033487 -0.11622,5.8409897 -0.49618,0.463129 -0.61077,1.591889 -1.28691,1.78026 -7.67945,-0.0198 -15.35988,0.046 -23.0384,-0.0891 l -0.25168,-0.0206 z m 23.51442,-0.68669 c -1.9754,-0.221139 -3.9861,-0.10291 -5.97567,-0.151589 -5.62717,-0.0436 -11.25691,0.0654 -16.88234,-0.0856 -1.11988,-0.25624 -2.21315,-0.65362 -3.11288,-1.42073 -1.06299,-0.51515 -1.66302,-1.74387 -2.65336,-2.2267 0.0623,0.93212 1.16872,1.36459 1.65716,1.96557 0.85502,0.80521 1.94647,1.248861 2.9868,1.748701 1.03525,0.363159 2.15963,0.25553 3.25373,0.29792 6.77898,0.0538 13.56093,0.0913 20.33832,-0.0829 l 0.13949,-0.008 0.24875,-0.0363 z m -10.12825,-0.61907 c 1.35755,0.024 2.74031,0.28186 4.08452,5.03e-4 -0.43106,-0.23197 -0.99606,-1.35309 -0.18114,-0.54649 0.5886,0.45036 2.01087,-0.16787 2.18548,0.18107 -0.46697,0.20483 -1.07009,0.36022 -0.17737,0.38723 1.37432,0.0397 2.75929,0.13049 4.12969,0.0128 0.98368,-0.72679 -0.33375,-1.20815 -1.06675,-0.97286 -1.29628,0.32436 -2.154,-1.28093 -1.6964,-2.29856 0.20127,0.7943 0.57342,2.2415 1.75583,1.98091 0.54472,0.002 1.08945,7.94e-4 1.63418,0.001 0,-1.39882 0,-2.79763 0,-4.1964497 -0.73181,-0.38788 -1.52511,-0.0617 -2.29933,-0.11644 -0.47611,-0.0329 -0.69102,0.631991 -0.32688,0.5921 -0.6196,0.156001 -0.43307,2.0203197 -0.89971,0.8646997 -0.0671,-1.0906687 0.7466,-2.2214297 1.93576,-1.9876197 0.45693,-0.0163 0.91394,-0.0308 1.3709,-0.0463 0.25112,-0.79259 -0.21375,-0.85368 -0.94731,-0.8739 -0.5373,0.54176 -1.01121,0.39651 -1.51404,0.0888 -0.82294,-0.0106 -1.79365,-0.14532 -2.38639,0.0201 0.81032,0.0429 1.268,1.370941 0.15708,1.5342 -0.7738,0.0797 -2.78178,0.29354 -2.29735,-0.99107 0.0362,-0.59968 1.93784,-0.48375 0.69953,-0.64365 -2.04528,-0.06811 -4.08828,0.125082 -6.13158,-0.04931 -0.44553,0.004 -1.92142,-0.13684 -1.81128,0.22196 0.76517,-0.0136 1.81553,-0.0102 1.74424,1.01087 0.99814,0 1.99629,0 2.99443,0 0.37651,0.64505 0.37591,1.4302597 0.6356,2.0906797 0.89619,-0.563699 2.06389,-0.4584 3.12603,-0.41993 0.51303,0.348161 1.38293,0.20584 1.75929,0.61525 -0.24512,0.54097 -1.302,0.067 -1.20757,0.89737 -1.05239,0.16334 -2.59876,0.55905 -3.35884,-0.400789 -0.6238,-0.668381 -0.43761,1.0247 -0.86429,1.321309 -0.51897,1.02935 -2.07135,0.260371 -3.01665,0.394261 0.12725,1.292949 -1.82299,1.301579 -2.53833,0.65278 -1.28682,-0.110121 -1.70108,-1.443761 -2.60604,-2.166461 -1.09857,-1.109359 1.02342,-1.5974697 1.20884,-2.6579387 0.26297,-0.837801 2.0738,-0.383001 1.71645,-1.422281 -1.23933,-0.16621 -2.51174,-0.11175 -3.75995,-0.0548 -0.16783,0.30359 -1.29131,0.45379 -0.46153,0.1028 -0.81222,-0.35322 -2.04633,0.14025 -2.96446,0.0391 -0.54458,-0.17498 -1.82877,0.16062 -2.39591,0.81036 -0.39661,0.0148 -0.88546,0.55748 -0.90988,-0.0556 -0.9886,0.41267 -1.85159,1.06656 -2.58776,1.8708007 -0.66312,0.89785 1.09365,-0.216821 0.51892,0.579519 -0.25668,0.46577 -1.58575,0.0151 -0.70392,0.81823 0.97707,0.842771 1.8674,1.88459 3.14574,2.25499 0.1617,-0.2837 -0.52531,-1.06058 0.15878,-0.48085 0.85712,-0.0387 -0.1852,0.733421 0.65787,0.53096 0.14833,0.38873 0.71319,0.0183 0.87143,0.5212 2.54566,0.1276 5.11056,0.0127 7.66357,0.0189 1.6521,-0.0128 3.30465,-0.0321 4.9565,-0.0336 z m -7.9375,-0.246639 c -0.21218,-0.0244 -1.22837,-0.0663 -0.82253,-0.0773 0.5084,-0.0759 1.3274,0.139 1.60531,-0.29016 0.10863,-0.6786 -0.9738,-0.42704 -0.97582,-0.62191 0.8806,0.17473 0.71473,-1.257999 1.49622,-0.27295 1.03265,0.68235 0.15797,1.64476 -0.82908,1.29071 l -0.22549,-0.012 -0.24863,-0.0164 z m 1.55581,-0.467791 c -0.40442,-0.689279 -0.81112,0.76879 0,0 z m -6.09606,0.0851 c -0.73359,-0.508709 -0.2373,-0.868459 0.3287,-1.2662 0.6651,0.41745 0.97271,1.23831 -0.0942,1.39951 l -0.074,-0.0407 -0.16046,-0.0926 z m 0.66675,-0.64037 c -1.15281,-0.66855 -0.39109,0.9752 0,0 z m 18.923,0.579541 c 0.26325,-0.468531 0.11743,0.58184 0,-2.1e-5 z m -16.8275,-0.30999 c 0.33104,-0.381571 1.55788,0.192439 0.53226,0.12505 -0.12059,-0.0483 -0.48938,0.0634 -0.53226,-0.12505 z m 15.76074,-0.0761 c -0.57681,-0.48744 -1.99017,0.178349 -2.29949,-0.322351 0.67349,-0.355829 2.77608,-0.0863 2.38784,0.46579 z m -21.05505,-0.391661 c 0.56483,-0.0933 -0.0718,0.23148 3e-5,0 z m 6.11981,-0.502369 c -0.62831,-0.524281 -0.1434,-1.53793 -0.26523,-2.2821 0.0993,-0.2999407 -0.22224,-1.0633297 0.26845,-0.9323797 0.45228,-0.0694 1.14363,0.42996 0.30223,0.33932 -0.64433,0.6294287 0.34019,0.9552097 -0.27656,1.5467287 0.22153,0.50349 -0.17551,1.210221 0.60584,1.26896 -0.0523,0.29845 -0.47618,0.13692 -0.63473,0.0595 z m 18.2245,-0.0459 c 0.38354,-0.42389 0.0347,0.442581 0,0 z m -25.73004,-0.64843 c -0.33948,-0.2628 -0.5294,-0.977339 -0.0397,-0.269059 0.48852,0.406469 0.673,0.96193 0.0397,0.269079 z m 24.66057,0.19335 c 0.14275,-0.48304 0.0665,0.565511 0,0 z m 1.1093,-0.91017 c -0.0986,-0.3868 -0.003,-2.4093587 0.13088,-1.1210297 0.063,0.4482007 -0.0347,2.5374007 -0.13091,1.1210297 z m -17.78014,0.38949 c 0.56483,-0.0933 -0.0718,0.231481 3e-5,0 z m 18.53247,-0.89749 c -0.0331,-0.6630197 0.23167,-0.9381587 0.14366,-0.1011 0.0847,0.072 -0.12002,0.33458 -0.14366,0.1011 z m -26.63666,-0.366559 c 0.37071,-0.6070097 1.25672,-1.3576697 1.74451,-1.4261797 -0.5269,0.50782 -1.21543,0.99091 -1.74451,1.4261797 z m 24.765,-0.4196997 c 0.1,-0.76653 0.24793,0.6663487 1e-5,-4e-5 z m -20.80992,-0.29422 c -0.3198,-0.55275 -0.71462,-0.88991 0.0529,-1.2276 1.0861,-0.25403 2.22277,0.3573 3.38768,0.0995 0.60783,-0.12797 0.98805,0.21966 0.11813,0.26322 -1.09505,0.0543 -2.42464,-0.53434 -3.00429,0.70294 -0.15478,0.0847 -0.3667,0.27092 -0.55444,0.16189 z m 0.675,-0.7205 c -0.27486,-0.73854 -0.84771,0.46442 -10e-6,3.17e-4 z m 4.64092,0.11823 c -0.45578,-0.25743 -1.16621,-0.0743 -0.29366,-0.28524 0.70132,-0.20641 -6.9e-4,-0.90709 0.24556,-0.97384 1.23443,-0.4838 1.4689,1.16644 0.32302,1.35978 -0.0834,0.0259 -0.27907,0.0461 -0.27492,-0.1007 z m 0.889,-0.6985 c -0.54378,-0.74204 -0.59697,0.73539 0,0 z m 13.462,-0.18565 c 0.59564,-1.36117 0.75546,1.04659 0,0 z m -15.00981,-0.34561 c 0.56483,-0.0933 -0.0718,0.23148 3e-5,0 z m 5.43903,5.9237387 c 0.50131,-0.79228 -0.82054,-2.508129 0.70399,-2.16053 0.6212,0.21503 1.0377,-1.08681 0.77655,-0.0134 -0.25651,0.42621 -1.73315,0.53532 -0.54651,0.75361 1.4758,0.0745 0.37901,-2.4496197 1.87858,-1.68479 1.41968,0.18106 0.32184,-1.9222897 -0.7145,-1.4574797 -0.41608,1.4e-4 -2.42131,-0.199399 -1.19505,0.39996 0.63075,0.216561 1.42907,0.9563097 0.32519,0.328951 -0.6456,-0.447301 -1.37784,0.5671087 -0.28659,0.5203487 0.68302,0.0528 0.77469,0.51145 6.9e-4,0.23041 -0.53418,0.0281 -1.10659,0.21607 -0.89654,-0.5233797 0,-0.6165 0,-1.23299 0,-1.84949 -0.69731,0.004 -1.56851,-0.13166 -1.93805,0.63138 -0.6859,0.89508 -0.66792,2.0317397 -0.55708,3.1077297 0.22121,1.13976 1.18824,2.35612 2.44935,1.71687 z m -1.43408,-1.137359 c -0.6951,-0.652401 -0.65424,-2.165611 0.14443,-2.6479497 -0.74617,0.7417197 0.31736,1.0933387 0.88878,0.7053987 0.0964,0.77922 0.36799,2.5106 -1.03321,1.942551 z m 0.83798,-0.30983 c 0.83107,-1.067701 -1.417,-1.568571 -0.82985,-0.28624 0.1416,0.283139 0.55555,0.688219 0.82985,0.28624 z m -0.24712,-2.4847897 c -0.89305,-0.10802 0.13215,-0.16388 0.47042,-0.048 0.20691,0.341079 -0.37725,0.004 -0.47042,0.048 z m -1.61241,3.4750787 c 0.0898,-0.53659 -1.20706,-1.899999 -1.06375,-0.78234 0.18093,0.34021 0.59104,1.06251 1.06375,0.78234 z m 5.56944,-0.59529 c 0.17732,-0.17103 0.62775,-1.62411 0.1935,-1.258169 -0.53561,0.72855 -1.14995,-0.109061 -1.52927,0.802519 -0.55211,0.682561 0.68191,0.253691 0.91087,0.61478 l 0.21298,-0.0448 0.21195,-0.114269 z m -6.47383,-1.09208 c 0.35977,-0.49061 -0.12177,-1.159179 0.40614,-1.4983997 0.35195,-0.470239 0.69234,-1.702689 -0.23254,-0.888599 -0.37087,0.4294 -1.01059,0.92371 -0.37969,1.3325287 -0.51044,0.10083 -1.59072,0.21518 -0.88572,0.950421 0.34567,0.135329 0.72753,0.192389 1.09181,0.104049 z m 10.74669,-0.18417 c 0.31603,-1.2265497 -1.73098,-0.538119 -2.48043,-0.61787 -0.84649,0.87932 1.05747,0.97869 1.69047,0.809071 0.26491,-0.0364 0.56032,-0.0345 0.78996,-0.191201 z m -4.16589,-0.14304 c 0.37526,-0.9018 -1.35817,-0.51025 -0.47258,0.14292 0.16478,0.100071 0.37179,-0.004 0.47258,-0.14292 z m 5.461,-0.1905 c -0.41537,-0.426099 -1.30302,0.273621 -0.27649,0.11699 0.0838,-0.0293 0.23443,-0.0103 0.27649,-0.11699 z m -23.98269,-0.836849 c 0.96057,-0.8875997 2.07051,-1.6408097 3.15975,-2.3381497 0.93171,-0.46053 1.93898,-0.81644 3.01013,-0.72425 7.13129,-0.0998 14.26498,0.0396 21.39551,-0.12593 0.46144,-0.22052 -1.31877,-0.19017 -1.71816,-0.2109 -6.68953,-0.0438 -13.38057,-0.0603 -20.06956,0.0416 -1.08379,0.0135 -2.225,0.25772 -3.08792,0.86527 -1.01849,0.31045 -1.75236,1.09333 -2.52132,1.67824 -0.53317,0.22828 -1.83606,1.9270797 -0.51763,1.1394087 0.12331,-0.10067 0.23977,-0.20984 0.3492,-0.325239 z m 22.95359,-1.3775497 c 0.73656,0.29586 1.42977,-0.69247 0.39089,-0.69896 -0.51298,-0.0646 -2.48497,-0.081 -1.62997,0.73363 0.38682,0.17201 0.82777,-0.0717 1.23908,-0.0347 z m 0.0449,-1.17171 c -0.50395,-0.10757 -0.42579,0.20005 0,0 z"
       style="fill:#000000;stroke-width:0.127" />
  </g>
</svg>
