<?xml version="1.0" encoding="UTF-8" standalone="no"?>
<svg
   xmlns:dc="http://purl.org/dc/elements/1.1/"
   xmlns:cc="http://creativecommons.org/ns#"
   xmlns:rdf="http://www.w3.org/1999/02/22-rdf-syntax-ns#"
   xmlns:svg="http://www.w3.org/2000/svg"
   xmlns="http://www.w3.org/2000/svg"
   width="10.161386mm"
   height="9.904398mm"
   viewBox="0 0 10.161386 9.9043979"
   version="1.1"
   id="svg836">
  <defs
     id="defs830" />
  <metadata
     id="metadata833">
    <rdf:RDF>
      <cc:Work
         rdf:about="">
        <dc:format>image/svg+xml</dc:format>
        <dc:type
           rdf:resource="http://purl.org/dc/dcmitype/StillImage" />
        <dc:title></dc:title>
      </cc:Work>
    </rdf:RDF>
  </metadata>
  <path
     id="rect814"
     d="M 5.9886391,0.41064642 9.2508611,0.21653525 10.033269,1.4151548 10.084907,8.5606229 9.0187159,9.8009568 5.7123242,9.4587136 2.8318998,8.017923 C 2.4284788,7.862761 0.1132658,5.0258917 0.1132658,5.0258917 L 1.5843128,3.005773 Z"
     style="opacity:1;vector-effect:none;fill:#a8a8d6;fill-opacity:1;fill-rule:nonzero;stroke:#000000;stroke-width:0;stroke-linecap:butt;stroke-linejoin:round;stroke-miterlimit:4;stroke-dasharray:none;stroke-dashoffset:0;stroke-opacity:1" />
  <g
     id="layer1"
     transform="translate(294.89731,6.0746384)">
    <path
       style="fill:#000000;stroke-width:0.127"
       d="m -288.92906,3.7116179 c -0.32818,-0.3202 -0.87469,-0.33956 -1.27512,-0.57836 -0.5092,-0.19217 -0.9617,-0.48673 -1.39958,-0.80416 -0.99016,-0.64464 -1.8846,-1.43862999 -2.67323,-2.31647999 -0.16106,-0.46157 -0.72982,-0.75811 -0.60168,-1.31548001 0.1028,-0.55999 0.61455,-0.90634 0.96715,-1.31204 0.56707,-0.58882 1.22383,-1.07963 1.86604,-1.57847 0.64008,-0.39369 1.32123,-0.71973 1.94904,-1.13038 0.42808,-0.25115 0.96305,-0.33633 1.32867,-0.67539 1.10497,-0.12369 2.22097,-0.0547 3.33116,-0.0688 0.22783,0.39441 0.49518,0.77776 0.6985,1.17903 -0.009,2.32765 0.0241,4.65592001 -0.0282,6.98304 0.0272,0.53553 -0.17418,1.05126 -0.57352,1.41285 -0.12723,0.41481 -0.69209,0.26187 -1.08844,0.31448 -0.82128,0.003 -1.65237,0.0433 -2.46592,-0.0854 l -0.0349,-0.0245 z m 3.13,-0.42922 c 0.0109,-0.33483 -0.74466,-0.15739 -1.02295,-0.24081 -0.84659,-0.0349 -1.7344,-0.0337 -2.49898,-0.45296 -1.37476,-0.62737 -2.69394,-1.42799 -3.7248,-2.54805999 -0.24878,-0.15657 -0.69805,-0.86519 -0.95941,-0.52085 0.13729,0.45067 0.59274,0.75516 0.89885,1.11105 0.39867,0.39958999 0.81163,0.79217999 1.30356,1.07191999 0.5721,0.51049 1.34447,0.72692 1.93051,1.21037 0.50566,0.10044 0.95032,0.41329 1.49549,0.40006 0.82875,0.0702 1.6773,0.16152 2.50082,0.0102 l 0.0769,-0.041 z m -2.2455,-1.13509 c 0.0186,0.4756 0.29993,0.18906 0.33616,-0.0802 0.23801,-0.0514 0.2057,0.67908 0.43053,0.18701 0.0353,-0.15323 0.0181,-0.58305 0.0717,-0.1975 0.0122,0.53636 0.66657,0.33128 1.01883,0.34033 0.19685,0.0125 0.88346,-0.11785 0.3862,-0.27131 -0.62322,0.13752 -0.50993,-0.90886 0.0636,-0.57265 0.29883,0.23478 0.41,0.0194 0.12877,-0.1819 -0.52431,-0.0922 -0.37076,-0.66637999 -0.41098,-1.08279999 -0.0713,-0.52561 -0.6736,-0.82654 -0.49635,-1.43812001 -0.10031,-0.4853 0.17431,-0.83552 0.45815,-1.16108 0.0671,-0.46507 0.10814,-0.99037 -0.0911,-1.42411 -0.257,-0.31206 0.25562,-1.17351 -0.4639,-0.82967 -0.36825,-0.0635 -0.55099,0.26847 -0.63995,0.5617 -0.0247,-0.0845 0.0271,-0.72873 -0.29526,-0.48211 -0.16324,0.3958 -0.39704,-0.36463 -0.54487,0.1339 -0.19894,-0.33296 -0.92231,-0.13859 -1.21701,0.18052 -0.79648,0.44487 -1.58557,0.92703 -2.26239,1.54533 -0.53778,0.23583 -0.0961,1.07233 0.33736,0.67419 0.23961,-0.58627 0.86142,-0.51073 1.33126,-0.70893 0.46007,-0.81365 1.48927,-1.08306 2.36612,-0.98656 0.66154,-0.0657 0.59577,0.61036 0.74977,1.02123 0.44525,0.26429 -0.23846,0.80702 -0.0903,1.23404 -0.0384,0.56022001 -0.003,1.13948001 0.23742,1.65384001 0.0154,0.444 -0.009,0.99504999 -0.55168,1.10580999 -0.73689,0.0801 -1.55621,0.11669 -2.21674,-0.27632 -0.41701,-0.27018999 -0.46205,-1.00622999 -1.11903,-0.82805999 -0.6257,0.0331 -0.764,-0.7083 -0.81156,-1.18852 0.067,-0.23971001 -0.14207,-0.59484001 -0.23475,-0.17196001 0.005,0.39601001 -0.37598,0.94903001 -0.14075,1.24375001 0.49608,0.21677 0.7819,0.72159 1.21355,1.03458999 0.59124,0.48001 1.30614,0.76951 1.97497,1.12111 0.27924,0.22693 0.42246,-0.54399 0.47905,-0.35615 9.3e-4,0.0667 0.003,0.13465 0.003,0.20062 z m 2.18255,-0.28575 c -0.36002,-0.63032 -0.33883,0.62179 0,0 z m -5.62325,-1.04224999 c -0.4662,-0.51279 -0.88772,-1.06746 -1.31457,-1.60905 -0.22774,-0.16906 -1.01689,-0.26378001 -0.50878,0.15894 0.40896,0.41516 0.81428,0.86492 1.34139,1.12513 0.1991,0.11766 0.44,0.52110999 0.60383,0.49848 -0.0335,-0.0626 -0.0781,-0.11804 -0.12187,-0.1735 z m 3.4452,-0.0762 c 0.0989,-0.12924 0.59259,0.44836999 0.59989,-0.0855 0.046,-0.39565 -0.276,-0.38149 -0.4915,-0.2131 -0.53263,-0.051 -1.07741,-0.29223 -1.40223,-0.72938 -0.18649,0.30548 -0.0437,0.87978 0.34667,1.03164 0.24279,0.10349 0.83904,0.39867999 0.94717,-0.004 z m 2.89769,-0.18217 c 0.0372,-0.45094 -0.69185,-0.52821 -0.44654,-0.005 0.11071,0.31209 0.54823,0.58705999 0.44654,0.005 z m -2.30644,-0.63811 c 0.26193,-0.42964 0.15764,-0.98388001 0.18642,-1.46877001 -0.004,-0.24423 -0.0104,-0.48842 -0.0157,-0.73263 -0.49004,0.0496 -1.01567,-0.0194 -1.46834,0.19995 -0.015,0.39997 0.94233,-0.0325 0.76354,0.60529 0.15048,0.48472001 0.0259,1.08670001 -0.43129,1.23520001 0.19492,0.21468 0.7036,0.30594 0.96533,0.16096 z m -2.85708,-0.55445 c -0.0415,-0.23742 -0.0438,-0.53031001 0.25454,-0.44559001 0.16454,-0.22846 -0.44572,-0.20281 -0.27214,-0.55399 0.024,-0.21763 0.51415,-0.54521 0.0316,-0.62769 -0.50875,0.0325 -0.71422,0.59119 -0.68908,1.03361 -0.0161,0.43927001 0.13694,0.96602001 0.61155,1.09535001 0.17169,-0.0515 0.0446,-0.3734 0.0635,-0.50169 z m 5.06319,-0.24356 c 0.25181,-0.43212001 0.0986,-1.17885001 -0.53785,-0.87345001 -0.42049,0.0582 0.002,0.73688 0.0849,1.00240001 0.13821,0.24868 0.38315,0.0516 0.45298,-0.12895 z m -6.50367,-0.28055001 c 0.15038,-0.72512 -1.09145,-0.15864 -0.52043,0.29523001 0.22454,0.25285 0.52117,-0.0399 0.52043,-0.29523001 z m 3.51581,-0.0261 c 0.0904,-0.53989 -0.93843,-0.44573 -1.07559,-0.14295 -0.005,0.48875001 0.9323,0.79810001 1.06758,0.27883 l 0.006,-0.0642 z m -5.81025,0.0271 c -0.1353,-0.43326 -0.75664,0.15715001 -0.22225,0.15875001 0.0859,0.005 0.26381,-0.0303 0.22225,-0.15875001 z m 1.15822,-0.41833 c 0.36286,-0.25574 0.48859,-0.78146 0.87371,-0.93784 -0.42297,-0.0323 -0.78481,0.48395 -1.12904,0.72985 -0.24392,0.12084 -0.56941,0.7325 -0.0565,0.43913 0.11034,-0.0679 0.21268,-0.14811 0.31181,-0.23114 z m -0.26874,-0.63612 c 0.78704,-0.70654 1.63236,-1.35579 2.53721,-1.90423 0.30365,-0.10052 0.41442,-0.37313 0.77602,-0.3802 0.25342,-0.34564 0.79334,-0.30234 1.1629,-0.50251 0.93175,-0.27504 1.91858,-0.0946 2.86186,-0.28894 0.17242,-0.0745 0.28928,0.39718 0.33487,0.0398 -0.19697,-0.48946 -0.82969,-0.44404 -1.26894,-0.46903 -1.01284,-0.003 -2.01278,0.25025 -2.9207,0.69349 -0.73562,0.27508 -1.43623,0.63955 -2.05565,1.12445 -0.43337,0.17282 -0.79968,0.47116 -1.14415,0.7849 -0.4269,0.40489 -0.89506,0.79219 -1.20371,1.29866 0.19892,0.46666 0.69332,-0.23936 0.92029,-0.39639 z m 4.15059,0.1337 c 0.13291,-0.58128 0.79544,-0.46016 1.24375,-0.50162 0.34395,0.0306 0.71013,-0.51325 0.15431,-0.47366 -0.49268,-0.0397 -1.02537,-0.19176 -1.49898,0.003 -0.47046,0.26453 -0.61041,0.95277 -0.28601,1.3794 0.21821,0.0996 0.3061,-0.2722 0.38693,-0.40738 z m 3.8576,-0.73131 c 0.1206,-0.33326 -0.18414,-0.64687 -0.37672,-0.23831 -0.51511,0.35598 0.14855,1.18251 0.34604,0.45526 0.0157,-0.0715 0.0246,-0.14414 0.0307,-0.21695 z m -0.72839,-1.27211 c -0.14798,-0.34489 -0.41104,0.37678 -0.038,0.08 l 0.0297,-0.0402 0.008,-0.0398 z m 0.53527,-0.34608 c 0.17716,-0.43098 -0.89989,-0.28675 -0.38605,0.064 0.13199,0.22107 0.36496,0.22746 0.38605,-0.064 z"
       id="path865" />
  </g>
</svg>
