<?xml version="1.0" encoding="UTF-8" standalone="no"?>
<svg
   xmlns:dc="http://purl.org/dc/elements/1.1/"
   xmlns:cc="http://creativecommons.org/ns#"
   xmlns:rdf="http://www.w3.org/1999/02/22-rdf-syntax-ns#"
   xmlns:svg="http://www.w3.org/2000/svg"
   xmlns="http://www.w3.org/2000/svg"
   xmlns:sodipodi="http://sodipodi.sourceforge.net/DTD/sodipodi-0.dtd"
   xmlns:inkscape="http://www.inkscape.org/namespaces/inkscape"
   width="51.507126mm"
   height="9.7849159mm"
   viewBox="0 0 51.507126 9.7849159"
   version="1.1"
   id="svg836"
   sodipodi:docname="ship-5.svg"
   inkscape:version="0.92.3 (2405546, 2018-03-11)">
  <sodipodi:namedview
     pagecolor="#ffffff"
     bordercolor="#666666"
     borderopacity="1"
     objecttolerance="10"
     gridtolerance="10"
     guidetolerance="10"
     inkscape:pageopacity="0"
     inkscape:pageshadow="2"
     inkscape:window-width="1680"
     inkscape:window-height="988"
     id="namedview8"
     showgrid="false"
     inkscape:zoom="1.7927536"
     inkscape:cx="97.336301"
     inkscape:cy="18.49118"
     inkscape:window-x="-8"
     inkscape:window-y="-8"
     inkscape:window-maximized="1"
     inkscape:current-layer="svg836" />
  <defs
     id="defs830" />
  <metadata
     id="metadata833">
    <rdf:RDF>
      <cc:Work
         rdf:about="">
        <dc:format>image/svg+xml</dc:format>
        <dc:type
           rdf:resource="http://purl.org/dc/dcmitype/StillImage" />
        <dc:title></dc:title>
      </cc:Work>
    </rdf:RDF>
  </metadata>
  <path
     id="rect814"
     d="M 8.3051596,0.094303 H 47.901809 l 3.521321,0.949231 0.084,7.84765 -3.605321,0.7747304 H 8.3051596 L 4.073671,8.3026788 0.00867701,4.8278977 2.4013601,2.807779 Z"
     style="opacity:1;vector-effect:none;fill:#ffffff;fill-opacity:1;fill-rule:nonzero;stroke:#000000;stroke-width:0;stroke-linecap:butt;stroke-linejoin:round;stroke-miterlimit:4;stroke-dasharray:none;stroke-dashoffset:0;stroke-opacity:1" />
  <g
     style="fill:#010101;fill-opacity:1;stroke:none;stroke-opacity:1"
     id="layer1"
     transform="translate(268.41428,-11.649209)">
    <path
       id="path895"
       d="m -260.10915,21.315463 c -1.52829,-0.92744 -3.64808,-0.42386 -4.83919,-1.58239 -0.77372,-1.149051 -2.63551,-1.650061 -3.37042,-2.8811 -0.62704,-1.07009 2.00548,-2.096261 2.88162,-2.87543 0.86853,-0.802361 2.05297,-1.600911 3.63072,-1.671081 1.53105,-0.54745 3.14995,-0.63985 4.82305,-0.59115 12.15641,-0.0719 24.31524,-0.11132 36.4709,0.0292 1.13051,0.22237 2.53845,0.62475 3.52132,0.949231 0.0281,2.61588 0.056,5.231759 0.084,7.84765 -1.48352,0.22356 -2.77906,0.95978 -4.33412,0.81363 -12.78526,0.0975 -25.57337,0.11981 -38.35824,-0.0115 l -0.36296,-0.0132 -0.14665,-0.0142 z m 1.1241,-0.63124 c -1.24964,-0.32192 -2.99309,-1.25624 -4.07271,-0.96353 1.13174,0.439889 2.80681,1.2648 4.07271,0.96353 z m 19.91254,-0.06 c -0.47562,-0.252991 -2.72834,-0.13218 -0.92567,-0.415331 0.3826,-0.391759 1.25647,0.240751 0.81206,-0.6624 -0.60388,0.5105 -0.64494,-0.71843 -1.79355,-0.32664 -1.34306,-0.1809 -2.99909,1.33401 -0.6752,1.091061 -0.61248,0.35648 -3.47902,0.142219 -4.85996,0.21591 -0.82224,-0.0623 -2.89087,0.1082 -2.93087,-0.18464 1.02224,-0.213481 3.24991,0.230809 3.57555,-0.352461 -1.35056,-0.0692 -2.80921,-0.0175 -3.73705,-0.303539 -1.17496,0.136739 -2.07243,1.369419 -0.28543,1.06514 3.52897,0.0397 7.06779,0.117629 10.59204,-0.0359 0.20259,0.159939 0.13901,-0.095 0.22808,-0.0912 z m 8.51101,0.0764 c -0.63443,-0.420141 -1.13712,-1.316261 -2.00515,-1.397151 -1.82819,0.0153 -3.72454,0.007 -5.49701,0.11895 -0.39803,-1.37275 2.11774,-0.005 3.13009,-0.39617 1.00394,0.0464 2.08376,-0.0644 3.04248,0.0736 0.78111,0.51148 1.50328,1.17859 2.37566,1.53957 2.55573,-0.0689 5.12465,-0.003 7.66849,-0.21441 1.03829,-0.14486 -1.53993,-0.69738 -0.0899,-1.283999 0.95766,-1.106771 2.77353,0.208489 1.29492,0.881169 1.44406,-0.27186 3.41004,-0.81006 2.92255,-2.28677 -0.21353,-1.28828 0.60686,-3.18157 -1.06593,-3.99718 -1.01394,-0.58775 -1.28508,-0.044 -1.28322,0.67091 -0.95894,0.14447 -2.87203,-0.29331 -2.30313,-1.35618 -0.15931,-0.91862 -2.98909,-0.23884 -4.15366,-0.39946 -1.72314,0.005 -3.7156,-0.16497 -4.84833,1.11195 -0.43683,0.45368 -0.97855,0.7101 -1.71406,0.60205 -0.94623,0.12478 -3.05409,-0.25483 -3.02225,0.37565 0.63671,0.64575 2.12501,1.76111 2.38361,1.8467 -1.2085,0.33981 -2.06808,2.60133 -3.32949,1.67377 -0.68791,0.55534 -1.74792,-0.25304 -0.31821,-0.35796 2.24151,0.45351 3.94635,-2.28656 1.15161,-2.67906 -0.82992,-0.24727 -2.4719,0.58645 -1.75485,-0.52257 0.86333,0.64986 2.29276,-0.35244 0.49575,-0.3298 -1.01497,0.18128 -0.72015,-1.07087 0.16502,-0.40019 1.87118,-0.24964 4.22539,0.50845 5.73827,-0.60665 0.85239,-0.43078 1.96254,-1.30486 0.11519,-1.09007 -2.26668,-0.008 -4.5645,-0.1329 -6.81242,0.0692 -0.3689,0.55671 -0.98397,1.04331 -1.46833,0.36627 1.41619,-0.69672 -2.80372,-0.32776 -3.60298,-0.45029 -2.50692,0.007 -5.01796,-0.0259 -7.52189,0.0545 -0.24815,0.22441 0.92788,1.47552 1.51064,1.47695 1.60801,-0.82669 3.64407,-0.36671 5.447,-0.48118 1.60847,0.21618 3.71454,0.97674 4.99908,0.44021 -0.30956,0.70792 -3.50125,0.48804 -1.44408,1.17444 0.96314,0.1799 1.72954,-0.77703 1.48482,0.44678 -0.0584,0.99856 0.32508,2.68277 -0.14429,3.29687 -0.39784,-1.25806 -1.3654,0.53321 0.0271,0.34732 0.22495,0.320351 0.48233,2.30272 0.90354,1.05162 -0.072,-0.50881 0.18407,0.60765 1.00851,0.22225 1.20433,0.0332 2.02297,0.0313 2.46859,-0.51745 0.74235,-0.13129 1.79145,-0.21562 0.59606,0.25754 -0.65895,0.86746 -3.75591,0.10539 -3.69079,0.69488 2.37058,0.0956 4.77598,0.131261 7.14101,-0.0267 z m -2.0876,-0.281411 c 0.53868,-0.54394 0.11127,0.49713 0,0 z m -0.1907,-0.72176 c 0.98769,-0.12746 -0.29847,0.24563 0,0 z m 1.79655,-0.54824 c 0.4324,-0.51188 0.37844,0.49447 0,0 z m 0.86257,-1.40196 c -0.18805,-0.50123 -1.58709,-1.26135 -0.58611,-1.66879 1.07747,-1.07878 2.99102,-1.10264 4.53946,-0.78247 0.97588,0.41537 0.20591,1.50221 1.83968,0.97874 0.97041,0.10771 2.08463,0.14065 1.99792,-0.49947 1.4516,1.42779 -1.64499,1.4818 -2.22767,1.56413 -0.82712,-0.69729 -1.74749,1.0539 -2.94463,0.39578 -0.87118,0.006 -1.7501,0.0871 -2.61865,0.0121 z m 3.13403,-0.43211 c 2.22434,0.0356 0.64523,-2.72474 -0.84242,-1.764629 -1.42556,-0.597961 -3.9572,0.96364 -1.75569,1.74331 0.84702,0.25148 1.73316,0.0135 2.59811,0.0213 z m -2.21968,-0.505439 c -0.1066,-0.62057 0.83074,0.55657 0,0 z m 1.87724,-0.39099 c 0.142,-1.19009 0.34731,1.15709 0,0 z m 5.13824,0.34925 c -0.74712,-0.21722 -3.2305,-0.33807 -3.29336,0.14009 1.07401,0.10128 2.254,0.10153 3.29336,-0.14009 z m 3.01545,0.38279 c -0.0805,-0.644601 -0.8624,0.65782 -0.71603,-0.38246 -0.24824,-0.80606 0.45324,-1.63763 0.45152,-0.360121 0.24292,0.56417 0.4147,-1.724339 0.49477,-0.213919 -0.0348,0.14156 0.11721,2.056639 -0.23026,0.9565 z m -18.8736,-0.10454 c 0.38127,-0.45327 0.11898,0.57581 0,0 z m 19.58123,-0.0878 c -0.3539,-0.592761 0.23843,-2.140041 0.48985,-0.78266 0.0484,0.24481 0.005,1.672119 -0.48985,0.78266 z m -19.58123,-0.95746 c 0.14379,-0.34504 0.80744,0.45972 0.0708,0.13057 z m 7.16845,-1.76591 c -0.40795,-0.68379 1.07092,0.003 0,0 z m 0.64967,-0.7219 c 0.46446,-1.281681 1.02556,0.49274 0,0 z m -7.81595,-0.45998 c -0.28366,-0.743101 0.84617,-0.32567 1.37867,-0.398681 0.90261,0.0935 3.0371,-0.21578 2.62094,0.763141 -1.05468,-0.469101 -3.70317,0.1825 -3.99961,-0.36446 z m 2.79153,-0.10583 c -0.22226,-0.403641 -0.43491,0.33636 0,0 z m 2.4755,0.40008 c 0.98768,-0.12746 -0.29844,0.24563 0,0 z m -10.67722,-0.63161 c 0.88291,-0.385321 0.98662,0.26073 0,0 z m 2.71822,-0.004 c 1.29587,-0.0903 0.16219,0.19338 0,0 z m 22.4074,7.687349 c 1.17247,-0.134879 1.23427,-1.509029 -0.0412,-0.657189 -0.91196,0.28463 -2.85057,1.46347 -0.66388,0.874599 l 0.34516,-0.0991 z m -33.25653,0.0472 c 1.04454,-0.2653 1.1264,-2.19584 0.0503,-1.10653 0.0504,0.618481 -2.78976,0.55955 -1.50924,0.141341 -0.98494,-0.968781 0.44652,-0.57554 0.91361,-0.938021 -1.28238,-0.38811 -2.52041,-1.083229 -3.90695,-0.608789 -0.9614,-1.047271 1.39275,-0.601121 2.19315,-0.690061 0.76068,0.0769 0.55299,-1.773149 -0.53514,-1.28471 -0.76925,0.245181 -3.02204,-0.19912 -1.37442,-0.614659 1.98243,0.354259 3.21297,-1.046201 5.19879,-0.64165 1.93021,-0.247961 -0.587,-1.784901 -1.40744,-1.967431 -1.91752,-0.0632 -3.90257,-0.26299 -5.67767,0.0971 -1.79623,0.0429 -3.11334,0.959311 -4.59492,1.437371 -1.06739,-0.51639 -2.51749,0.87277 -3.54422,1.51763 -1.78019,0.73108 -0.34622,1.61719 0.95809,2.35318 0.89716,0.5578 2.08648,1.1981 3.1288,0.97118 -0.74888,0.824859 2.26889,0.90923 3.02572,1.24927 2.32912,0.23376 4.74288,0.209369 7.0815,0.0848 z m -8.32361,-1.201119 c -1.58607,-1.02802 1.87616,-1.372461 1.13558,-0.0697 -0.54718,0.16354 -0.96949,1.016949 -1.13558,0.0697 z m 0.98649,-0.413411 c -0.81091,-0.767839 -0.80324,0.745891 0,0 z m -2.27831,-0.0233 c 0.98769,-0.12746 -0.29848,0.24563 0,0 z m -0.38962,-1.01093 c -0.72376,-0.22924 -1.41236,-0.94974 -2.59919,-0.94765 0.71825,-0.11298 2.99187,-0.31316 0.97396,-0.4699 -1.09121,0.0354 -1.35451,-0.40158 -0.0262,-0.28351 1.52291,-0.008 2.35293,-1.20482 3.95867,-0.75686 1.07933,-0.15691 1.73376,0.70918 0.29764,0.31131 -1.68224,-0.56111 -3.11705,1.05349 -1.62022,1.89835 0.63414,-0.10575 2.36523,0.43356 2.29646,-0.40145 0.10128,-0.93477 0.75283,-1.20758 0.49562,-0.0803 -0.27365,1.32694 -2.61153,0.82 -3.77671,0.73 z m -0.0621,-0.87829 c -0.38127,-0.45327 -0.11899,0.57581 0,0 z m -3.53288,0.22194 c -1.22309,-0.83591 1.10819,-1.87273 1.76639,-2.56394 1.88895,-0.61699 -1.02364,0.78428 -1.30949,1.3335 -0.83797,0.25075 -0.0348,1.5701 -0.4569,1.23044 z m 4.81756,-0.78594 c 0.55145,-0.54479 0.0991,0.499419 0,0 z m 0.51769,-1.366361 c -0.39841,-0.68579 -1.14569,-0.740229 0.0679,-1.064109 1.68758,-0.795951 1.55803,1.12241 -0.0679,1.064109 z m 0.92758,-0.729139 c -0.93819,-0.74954 -0.93101,0.73761 0,0 z m 5.16194,-0.0282 c 1.32251,-0.007 -0.23642,-1.33651 1.31544,-0.91232 2.14282,0.52634 -0.53954,1.34641 -1.31544,0.91232 z m 1.74323,-0.42988 c -0.97012,-0.51395 -0.65539,0.692319 0,0 z m -4.57668,0.25719 c -1.01668,-0.0602 -1.04113,-0.091 -0.006,-0.0903 0.64203,-0.0776 2.34092,0.0694 0.76971,0.12885 l -0.36674,-0.0135 -0.39629,-0.025 z m 1.65604,-0.71135 c 0.98769,-0.12746 -0.29847,0.24563 0,0 z m 11.29272,6.72441 c -0.47949,-0.32269 -2.3472,0.002 -0.72765,0.17687 0.25955,0.0263 0.52961,-0.0432 0.72765,-0.17687 z m 23.04025,-0.45814 c 1.45131,-1.516951 -2.90703,0.14642 -0.70745,0.2861 0.26352,-0.0416 0.50478,-0.14906 0.70745,-0.2861 z m -42.74672,-0.16061 c 0.42383,-0.3805 -1.47003,-0.99616 -1.93463,-1.13818 -0.1229,0.549559 1.30191,1.27811 1.93463,1.13818 z m 19.64176,-0.0667 c 0.69543,0.0293 1.37522,0.0322 1.71962,-0.52934 0.48531,-0.29681 0.74695,-1.0037 1.40731,-0.97958 1.2271,0.28727 2.23794,-0.39983 1.02235,-1.14679 0.35663,-0.38207 1.15529,-1.74028 -0.0874,-1.51849 -2.07286,0.11326 -2.63554,-2.24803 -4.94588,-1.57919 -1.60622,0.14155 -4.5449,-0.56999 -4.76217,1.2646 -0.41222,1.16795 -0.30912,2.74061 0.19386,3.60193 0.55074,1.84607 3.74291,0.58446 5.45221,0.88684 z m -3.54555,-0.48712 c -1.54713,-0.92719 -0.9647,-2.86934 -0.6102,-4.14255 0.35206,-0.6625 2.487,-0.97388 0.86595,-0.24439 -1.33264,0.91379 -0.96241,2.73592 -0.25552,3.84672 0.9267,0.23879 1.47346,1.20296 -2.3e-4,0.54022 z m 3.90976,0.13882 c -2.11491,0.26397 -3.1499,-1.53067 -2.60129,-2.97116 0.0292,-0.43422 0.62131,-2.10022 0.50989,-0.83774 0.194,1.10061 -0.39039,2.37331 0.47724,3.32659 2.52265,0.99875 0.93765,-1.95595 1.54914,-2.89667 0.92835,-0.70896 -0.53713,-1.64049 -1.5994,-1.41589 1.59328,-0.38592 2.7661,0.84804 2.30761,2.12314 -0.084,0.75664 0.23045,2.55841 -0.64319,2.67173 z m -0.16059,-3.76986 c 0.38127,-0.45326 0.11899,0.5758 0,0 z m -0.45162,-0.31794 c 0.66716,-0.73687 0.34804,0.41453 0,0 z m -8.05937,4.39693 c -0.35579,-0.44723 -0.40596,0.23578 0,0 z m 11.76592,-0.5353 c -0.90559,-0.124 -0.32233,0.2027 0,0 z m -25.4557,-0.73501 c -0.097,-0.64695 -2.69518,-2.03289 -1.57468,-0.69516 0.27321,0.0904 2.08044,1.64866 1.57468,0.69516 z m 13.52921,-0.007 c 0.98645,-0.18321 1.59365,-0.61883 0.98207,-1.50032 0.8465,-0.58443 0.97167,-1.70672 -0.58792,-1.301031 -1.09434,0.665931 -0.3719,2.27677 -1.10653,2.934751 0.1953,0.075 0.68088,0.11625 0.71238,-0.1334 z m -0.62186,-1.17475 c 0.49394,-0.58254 -0.97728,0.7364 0,0 z m 13.78981,-0.15875 c -0.43239,-0.511831 -0.37849,0.49448 0,0 z m -11.31462,-0.26245 c 0.20207,-0.52887 -0.70038,0.46735 0,0 z m -16.16299,-0.658331 c 0.68706,-1.23288 2.91346,-1.292699 3.61294,-2.340689 -1.85158,0.24415 -3.32345,1.563259 -4.65132,2.5619 -0.80442,0.977919 0.91382,0.033 1.03838,-0.221211 z m 13.98849,-0.58844 c 1.55527,-0.373519 -0.4471,-0.599029 -0.41101,0.0795 0.12619,0.0495 0.36189,0.0578 0.41101,-0.0795 z m 32.22267,-1.227779 c 0.0529,-1.28563 -2.87394,-0.64292 -0.88888,0.0501 0.28107,0.0345 0.76222,0.30144 0.88888,-0.0501 z m -40.66117,-0.946031 c 0.90633,-1.10852 -3.17935,0.766691 -0.88285,0.242281 0.28272,-0.10372 0.57175,-0.20475 0.88285,-0.242281 z m 43.60662,0.250011 c -0.33203,-0.937351 -4.53027,-0.896381 -1.7664,-0.249991 0.50318,-0.026 1.57425,0.884051 1.7664,0.249991 z"
       style="fill:#010101;stroke-width:0.14280869;fill-opacity:1;stroke:none;stroke-opacity:1" />
  </g>
</svg>
